<svg width="122" height="92" viewBox="0 0 122 92" fill="none" xmlns="http://www.w3.org/2000/svg">
<rect width="122" height="92" rx="8" fill="url(#paint0_linear_139_13)"/>
<path d="M38.172 42.732L38.042 50.116L39.134 50.22C39.134 50.4627 39.0603 50.7227 38.913 51H35.923L35.884 50.545C36.2827 50.4063 36.677 50.3023 37.067 50.233C37.0497 49.6697 37.0193 48.5083 36.976 46.749C36.9413 44.9897 36.911 43.629 36.885 42.667C36.5383 42.5977 36.1483 42.4937 35.715 42.355L35.754 41.9H39.004C39.1513 42.1773 39.225 42.4373 39.225 42.68C38.783 42.7147 38.432 42.732 38.172 42.732ZM46.7115 45.696C46.7461 45.9733 46.7635 46.294 46.7635 46.658C46.7635 47.022 46.7288 48.1747 46.6595 50.116L47.7515 50.22C47.7515 50.4627 47.6778 50.7227 47.5305 51H44.5405L44.5015 50.545C44.9001 50.4063 45.2901 50.3023 45.6715 50.233C45.6195 47.9277 45.5718 46.645 45.5285 46.385C45.4938 46.125 45.4331 45.9083 45.3465 45.735C45.2598 45.553 45.1255 45.4273 44.9435 45.358C44.7615 45.2887 44.4841 45.254 44.1115 45.254C43.7475 45.254 43.2665 45.3927 42.6685 45.67C42.6165 47.646 42.5818 49.128 42.5645 50.116L43.6565 50.22C43.6565 50.4627 43.5828 50.7227 43.4355 51H40.4455L40.4065 50.545C40.8051 50.4063 41.1951 50.3023 41.5765 50.233C41.5678 49.609 41.5461 48.7293 41.5115 47.594C41.4768 46.45 41.4551 45.7003 41.4465 45.345C40.9698 45.319 40.5885 45.267 40.3025 45.189L40.3545 44.513C40.8225 44.383 41.5028 44.318 42.3955 44.318C42.5168 44.5347 42.5948 44.76 42.6295 44.994C43.0108 44.7947 43.3878 44.6213 43.7605 44.474C44.1331 44.318 44.3671 44.24 44.4625 44.24C45.4245 44.24 46.0961 44.5347 46.4775 45.124C46.8761 44.9073 47.2878 44.708 47.7125 44.526C48.1458 44.3353 48.4058 44.24 48.4925 44.24C49.2811 44.24 49.8705 44.435 50.2605 44.825C50.6591 45.2063 50.8585 45.8347 50.8585 46.71C50.8585 46.97 50.8238 48.1053 50.7545 50.116L51.8465 50.22C51.8465 50.4627 51.7728 50.7227 51.6255 51H48.6355L48.5965 50.545C48.9951 50.4063 49.3851 50.3023 49.7665 50.233C49.7318 48.8637 49.7015 47.828 49.6755 47.126C49.6495 46.424 49.5498 45.9387 49.3765 45.67C49.2031 45.3927 48.8565 45.254 48.3365 45.254C47.8165 45.254 47.2748 45.4013 46.7115 45.696ZM57.6676 46.749L57.6026 50.103C57.9753 50.129 58.348 50.1897 58.7206 50.285L58.6946 50.74C58.556 50.8093 58.3046 50.8873 57.9406 50.974C57.5853 51.052 57.2343 51.091 56.8876 51.091C56.7316 50.779 56.645 50.48 56.6276 50.194C55.6396 50.844 54.9463 51.169 54.5476 51.169C53.9323 51.169 53.4383 51.0043 53.0656 50.675C52.693 50.3457 52.5066 49.8863 52.5066 49.297C52.5066 47.9363 53.3386 47.2343 55.0026 47.191C55.9733 47.165 56.463 47.152 56.4716 47.152L56.4586 46.71C56.4413 46.112 56.3286 45.683 56.1206 45.423C55.9126 45.1543 55.54 45.02 55.0026 45.02C54.7773 45.02 54.5346 45.072 54.2746 45.176L53.9626 46.476C53.9193 46.4847 53.8456 46.489 53.7416 46.489L53.2086 46.45C53.07 46.0773 52.9963 45.5617 52.9876 44.903C53.1523 44.8163 53.5293 44.6863 54.1186 44.513C54.708 44.331 55.085 44.24 55.2496 44.24C56.1336 44.24 56.7576 44.435 57.1216 44.825C57.4856 45.215 57.6676 45.8563 57.6676 46.749ZM54.8336 50.285C55.085 50.285 55.6656 50.0033 56.5756 49.44L56.5106 47.815C55.9213 47.867 55.4273 47.9147 55.0286 47.958C54.63 48.0013 54.3093 48.1183 54.0666 48.309C53.824 48.491 53.7026 48.7813 53.7026 49.18C53.7026 49.9167 54.0796 50.285 54.8336 50.285ZM62.8814 50.207L64.0384 50.181C65.2344 50.181 65.8324 50.675 65.8324 51.663C65.8324 52.1223 65.6331 52.547 65.2344 52.937C64.8444 53.3357 64.3764 53.6347 63.8304 53.834C63.2844 54.0333 62.7731 54.133 62.2964 54.133C61.8284 54.133 61.3908 54.0637 60.9834 53.925C60.5761 53.795 60.2294 53.5783 59.9434 53.275C59.6574 52.9717 59.5144 52.6207 59.5144 52.222C59.5144 52.1267 59.6661 51.8753 59.9694 51.468C60.2814 51.0693 60.4851 50.8353 60.5804 50.766C60.5024 50.714 60.3508 50.5667 60.1254 50.324C59.9001 50.0727 59.7744 49.8993 59.7484 49.804C59.9651 49.4053 60.3074 49.0153 60.7754 48.634C60.0821 48.218 59.7354 47.5333 59.7354 46.58C59.7354 45.8173 59.9781 45.2367 60.4634 44.838C60.9488 44.4393 61.5554 44.24 62.2834 44.24C63.0114 44.24 63.5748 44.357 63.9734 44.591C64.6668 44.4523 65.3471 44.383 66.0144 44.383C66.1791 44.383 66.2614 44.4827 66.2614 44.682C66.2614 45.0287 66.1964 45.267 66.0664 45.397L64.5714 45.15C64.8834 45.5487 65.0394 46.0253 65.0394 46.58C65.0394 47.4467 64.7838 48.0707 64.2724 48.452C63.7611 48.8247 63.1328 49.011 62.3874 49.011C62.1534 49.011 61.8761 48.9807 61.5554 48.92C61.4254 49.1887 61.2608 49.479 61.0614 49.791C61.2174 50.0683 61.8241 50.207 62.8814 50.207ZM64.5324 52.599C64.6191 52.3563 64.6624 52.105 64.6624 51.845C64.6624 51.5937 64.5628 51.39 64.3634 51.234C64.1641 51.078 63.9084 51 63.5964 51C62.3571 51 61.5988 50.987 61.3214 50.961C61.0874 51.3337 60.9228 51.6457 60.8274 51.897C60.7408 52.157 60.6974 52.3043 60.6974 52.339C60.6974 52.677 60.8578 52.9283 61.1784 53.093C61.4991 53.2577 61.8674 53.34 62.2834 53.34C62.7081 53.34 63.1328 53.2707 63.5574 53.132C63.9908 52.9933 64.3158 52.8157 64.5324 52.599ZM63.8694 46.632C63.8694 45.5573 63.3754 45.02 62.3874 45.02C61.3994 45.02 60.9054 45.54 60.9054 46.58C60.9054 47.1087 61.0354 47.516 61.2954 47.802C61.5554 48.088 61.9324 48.231 62.4264 48.231C63.3884 48.231 63.8694 47.698 63.8694 46.632ZM70.2671 50.272C70.6484 50.272 71.2464 50.09 72.0611 49.726C72.2257 49.9513 72.3124 50.1507 72.3211 50.324C71.8791 50.584 71.4457 50.7877 71.0211 50.935C70.5964 51.0823 70.2931 51.156 70.1111 51.156C69.1057 51.156 68.3387 50.857 67.8101 50.259C67.2814 49.6523 67.0171 48.8073 67.0171 47.724C67.0171 46.6407 67.2727 45.7913 67.7841 45.176C68.3041 44.552 69.0797 44.24 70.1111 44.24C70.9084 44.24 71.5151 44.526 71.9311 45.098C72.3557 45.67 72.5681 46.437 72.5681 47.399C72.4987 47.5203 72.4424 47.6027 72.3991 47.646L68.2131 47.581C68.2217 48.4563 68.3734 49.1237 68.6681 49.583C68.9714 50.0423 69.5044 50.272 70.2671 50.272ZM71.3851 46.84C71.3851 46.268 71.2811 45.826 71.0731 45.514C70.8651 45.1933 70.5184 45.033 70.0331 45.033C69.5477 45.033 69.1144 45.124 68.7331 45.306C68.4731 45.826 68.3084 46.359 68.2391 46.905C68.9237 46.8963 69.9724 46.8747 71.3851 46.84ZM74.6964 50.168C74.9997 50.298 75.3681 50.363 75.8014 50.363C76.2434 50.363 76.5901 50.2807 76.8414 50.116C77.0927 49.9513 77.2184 49.726 77.2184 49.44C77.2184 49.154 77.1014 48.9157 76.8674 48.725C76.6334 48.5343 76.3474 48.3653 76.0094 48.218C75.6714 48.0707 75.3334 47.9147 74.9954 47.75C74.6574 47.5853 74.3714 47.3687 74.1374 47.1C73.9034 46.8313 73.7864 46.5193 73.7864 46.164C73.7864 45.566 73.9857 45.098 74.3844 44.76C74.7831 44.4133 75.3334 44.24 76.0354 44.24C76.7461 44.24 77.4134 44.4003 78.0374 44.721C78.0461 44.8077 78.0504 45.0417 78.0504 45.423C78.0504 45.7957 78.0114 46.1163 77.9334 46.385C77.7254 46.4543 77.4784 46.489 77.1924 46.489L76.7634 45.163C76.5727 45.0677 76.3127 45.02 75.9834 45.02C75.6627 45.02 75.4071 45.1067 75.2164 45.28C75.0257 45.4447 74.9304 45.657 74.9304 45.917C74.9304 46.1683 75.0474 46.3893 75.2814 46.58C75.5241 46.7707 75.8144 46.944 76.1524 47.1C76.4904 47.2473 76.8284 47.4077 77.1664 47.581C77.5044 47.7457 77.7904 47.9667 78.0244 48.244C78.2671 48.5127 78.3884 48.8247 78.3884 49.18C78.3884 49.804 78.1457 50.2937 77.6604 50.649C77.1837 50.9957 76.5944 51.169 75.8924 51.169C75.5111 51.169 75.1037 51.1083 74.6704 50.987C74.2371 50.857 73.8731 50.6923 73.5784 50.493C73.5784 49.9123 73.6304 49.3967 73.7344 48.946C73.9337 48.9113 74.2024 48.894 74.5404 48.894L74.6964 50.168ZM81.1593 41.445C81.2113 41.6877 81.2373 41.9997 81.2373 42.381C81.2373 42.7623 81.0857 43.174 80.7823 43.616C80.4877 44.058 80.2147 44.357 79.9633 44.513C79.816 44.4523 79.6773 44.3527 79.5473 44.214C79.6427 43.928 79.9113 43.5293 80.3533 43.018C80.466 42.888 80.531 42.8143 80.5483 42.797C80.245 42.797 80.037 42.7883 79.9243 42.771C79.8723 42.6063 79.8463 42.381 79.8463 42.095C79.8463 41.809 79.855 41.6053 79.8723 41.484C80.063 41.4407 80.2623 41.419 80.4703 41.419C80.687 41.419 80.9167 41.4277 81.1593 41.445ZM83.4943 50.168C83.7976 50.298 84.1659 50.363 84.5993 50.363C85.0413 50.363 85.3879 50.2807 85.6393 50.116C85.8906 49.9513 86.0163 49.726 86.0163 49.44C86.0163 49.154 85.8993 48.9157 85.6653 48.725C85.4313 48.5343 85.1453 48.3653 84.8073 48.218C84.4693 48.0707 84.1313 47.9147 83.7933 47.75C83.4553 47.5853 83.1693 47.3687 82.9353 47.1C82.7013 46.8313 82.5843 46.5193 82.5843 46.164C82.5843 45.566 82.7836 45.098 83.1823 44.76C83.5809 44.4133 84.1313 44.24 84.8333 44.24C85.5439 44.24 86.2113 44.4003 86.8353 44.721C86.8439 44.8077 86.8483 45.0417 86.8483 45.423C86.8483 45.7957 86.8093 46.1163 86.7313 46.385C86.5233 46.4543 86.2763 46.489 85.9903 46.489L85.5613 45.163C85.3706 45.0677 85.1106 45.02 84.7813 45.02C84.4606 45.02 84.2049 45.1067 84.0143 45.28C83.8236 45.4447 83.7283 45.657 83.7283 45.917C83.7283 46.1683 83.8453 46.3893 84.0793 46.58C84.3219 46.7707 84.6123 46.944 84.9503 47.1C85.2883 47.2473 85.6263 47.4077 85.9643 47.581C86.3023 47.7457 86.5883 47.9667 86.8223 48.244C87.0649 48.5127 87.1863 48.8247 87.1863 49.18C87.1863 49.804 86.9436 50.2937 86.4583 50.649C85.9816 50.9957 85.3923 51.169 84.6903 51.169C84.3089 51.169 83.9016 51.1083 83.4683 50.987C83.0349 50.857 82.6709 50.6923 82.3763 50.493C82.3763 49.9123 82.4283 49.3967 82.5323 48.946C82.7316 48.9113 83.0003 48.894 83.3383 48.894L83.4943 50.168Z" fill="white"/>
<defs>
<linearGradient id="paint0_linear_139_13" x1="0" y1="46" x2="122" y2="46" gradientUnits="userSpaceOnUse">
<stop offset="0.11" stop-color="#4994CE"/>
<stop offset="0.79" stop-color="#295DCF"/>
</linearGradient>
</defs>
</svg>
