<svg width="337" height="92" viewBox="0 0 337 92" fill="none" xmlns="http://www.w3.org/2000/svg">
<rect width="337" height="92" rx="8" fill="url(#paint0_linear_119_21)"/>
<path d="M158.056 29C158.866 29 159.643 28.6912 160.216 28.1416C160.789 27.5919 161.111 26.8464 161.111 26.0691C161.111 25.2918 160.789 24.5463 160.216 23.9966C159.643 23.447 158.866 23.1382 158.056 23.1382C157.245 23.1382 156.468 23.447 155.895 23.9966C155.322 24.5463 155 25.2918 155 26.0691C155 26.8464 155.322 27.5919 155.895 28.1416C156.468 28.6912 157.245 29 158.056 29ZM173.944 29C174.755 29 175.532 28.6912 176.105 28.1416C176.678 27.5919 177 26.8464 177 26.0691C177 25.2918 176.678 24.5463 176.105 23.9966C175.532 23.447 174.755 23.1382 173.944 23.1382C173.134 23.1382 172.357 23.447 171.784 23.9966C171.211 24.5463 170.889 25.2918 170.889 26.0691C170.889 26.8464 171.211 27.5919 171.784 28.1416C172.357 28.6912 173.134 29 173.944 29Z" stroke="white" stroke-width="3" stroke-linejoin="round"/>
<path d="M160.73 27.4835L162.028 25.375L172.417 8.11488" stroke="white" stroke-width="3" stroke-linecap="round"/>
<path d="M159.581 8L169.97 25.2602L171.271 27.4835" stroke="white" stroke-width="3" stroke-linecap="round"/>
<path d="M131.834 50.512L131.704 57.116L132.796 57.22C132.796 57.4627 132.722 57.7227 132.575 58H129.585L129.546 57.545C130.014 57.389 130.413 57.285 130.742 57.233C130.725 56.6697 130.694 55.5083 130.651 53.749C130.616 51.9897 130.586 50.629 130.56 49.667C130.231 49.615 129.841 49.511 129.39 49.355L129.429 48.9H132.003L136.748 56.479L136.527 49.667C136.206 49.6063 135.821 49.5023 135.37 49.355L135.409 48.9H138.659C138.806 49.1773 138.88 49.4373 138.88 49.68C138.447 49.7147 138.1 49.732 137.84 49.732L137.71 58H136.449L131.834 50.512ZM142.977 57.272C143.358 57.272 143.956 57.09 144.771 56.726C144.936 56.9513 145.022 57.1507 145.031 57.324C144.589 57.584 144.156 57.7877 143.731 57.935C143.306 58.0823 143.003 58.156 142.821 58.156C141.816 58.156 141.049 57.857 140.52 57.259C139.991 56.6523 139.727 55.8073 139.727 54.724C139.727 53.6407 139.983 52.7913 140.494 52.176C141.014 51.552 141.79 51.24 142.821 51.24C143.618 51.24 144.225 51.526 144.641 52.098C145.066 52.67 145.278 53.437 145.278 54.399C145.209 54.5203 145.152 54.6027 145.109 54.646L140.923 54.581C140.932 55.4563 141.083 56.1237 141.378 56.583C141.681 57.0423 142.214 57.272 142.977 57.272ZM144.095 53.84C144.095 53.268 143.991 52.826 143.783 52.514C143.575 52.1933 143.228 52.033 142.743 52.033C142.258 52.033 141.824 52.124 141.443 52.306C141.183 52.826 141.018 53.359 140.949 53.905C141.634 53.8963 142.682 53.8747 144.095 53.84ZM151.423 52.891H151.371L149.889 58H148.602L146.821 52.28L145.729 52.176C145.729 51.9333 145.803 51.6733 145.95 51.396H148.94L148.979 51.851C148.702 51.9723 148.394 52.0677 148.056 52.137L148.979 55.686L149.213 56.83H149.343L149.603 55.673L150.916 51.396C151.02 51.3873 151.094 51.383 151.137 51.383L152.034 51.409L153.425 55.686L153.711 56.83H153.828L154.036 55.673L155.128 52.137L154.036 51.851L154.075 51.396H157C157.148 51.6733 157.221 51.9333 157.221 52.176C156.866 52.2193 156.511 52.2497 156.155 52.267L154.374 58H153.087L151.423 52.891ZM164.373 48.9C165.474 48.9 166.289 49.082 166.817 49.446C167.355 49.8013 167.623 50.434 167.623 51.344C167.623 52.254 167.359 52.9777 166.83 53.515C166.302 54.0437 165.448 54.308 164.269 54.308H163.177L163.138 57.129L164.152 57.22C164.152 57.4627 164.079 57.7227 163.931 58H161.006L160.967 57.558C161.331 57.4193 161.704 57.3153 162.085 57.246C162.033 53.866 161.99 51.3527 161.955 49.706C161.721 49.6627 161.34 49.5587 160.811 49.394L160.876 48.9H164.373ZM164.139 53.463C164.885 53.4543 165.452 53.268 165.842 52.904C166.232 52.5313 166.427 52.0417 166.427 51.435C166.427 50.8283 166.237 50.408 165.855 50.174C165.474 49.9313 164.863 49.81 164.022 49.81C163.866 49.81 163.602 49.8143 163.229 49.823C163.229 49.8317 163.216 51.0493 163.19 53.476L164.139 53.463ZM172.345 52.332C172.301 52.2887 172.206 52.267 172.059 52.267C171.911 52.267 171.69 52.319 171.396 52.423C171.11 52.527 170.85 52.6483 170.616 52.787C170.564 54.711 170.529 56.154 170.512 57.116L171.604 57.22C171.604 57.4627 171.53 57.7227 171.383 58H168.393L168.354 57.545C168.752 57.4063 169.142 57.3023 169.524 57.233C169.472 55.0317 169.428 53.4023 169.394 52.345C168.917 52.319 168.536 52.267 168.25 52.189L168.302 51.513C168.761 51.383 169.441 51.318 170.343 51.318C170.481 51.5347 170.568 51.812 170.603 52.15C171.599 51.5433 172.193 51.24 172.384 51.24C172.574 51.24 172.795 51.279 173.047 51.357C173.298 51.4263 173.484 51.5043 173.606 51.591C173.606 52.4577 173.523 53.164 173.359 53.71C173.237 53.7447 173.094 53.762 172.93 53.762C172.774 53.762 172.665 53.7577 172.605 53.749L172.345 52.332ZM177.197 57.376C177.925 57.376 178.414 57.1507 178.666 56.7C178.926 56.2407 179.056 55.5907 179.056 54.75C179.056 53.4153 178.761 52.579 178.172 52.241C177.929 52.1023 177.587 52.033 177.145 52.033C176.711 52.033 176.3 52.124 175.91 52.306C175.563 52.9733 175.39 53.749 175.39 54.633C175.39 55.4823 175.502 56.1367 175.728 56.596C175.988 57.116 176.477 57.376 177.197 57.376ZM174.194 54.75C174.194 53.6493 174.445 52.7913 174.948 52.176C175.45 51.552 176.226 51.24 177.275 51.24C178.323 51.24 179.082 51.526 179.55 52.098C180.018 52.6613 180.252 53.4977 180.252 54.607C180.252 55.7163 180 56.5873 179.498 57.22C179.004 57.8527 178.25 58.169 177.236 58.169C176.222 58.169 175.459 57.8743 174.948 57.285C174.445 56.6957 174.194 55.8507 174.194 54.75ZM181.293 61.133C181.015 61.133 180.677 61.0767 180.279 60.964C179.871 60.8513 179.594 60.7473 179.447 60.652C179.49 59.8633 179.572 59.287 179.694 58.923C179.884 58.8883 180.049 58.871 180.188 58.871C180.318 58.871 180.404 58.8753 180.448 58.884L180.773 60.301C180.903 60.3443 181.093 60.366 181.345 60.366C182.099 60.366 182.476 59.7463 182.476 58.507C182.476 57.779 182.458 56.6913 182.424 55.244C182.398 53.788 182.38 52.8217 182.372 52.345C181.895 52.319 181.514 52.267 181.228 52.189L181.28 51.513C181.722 51.383 182.363 51.318 183.204 51.318C183.472 51.318 183.663 51.3267 183.776 51.344C183.776 51.552 183.75 51.7817 183.698 52.033C183.646 52.2843 183.615 52.4057 183.607 52.397C183.581 53.6797 183.55 55.634 183.516 58.26C183.498 59.248 183.334 59.9717 183.022 60.431C182.718 60.899 182.142 61.133 181.293 61.133ZM183.646 50.161C183.42 50.213 183.199 50.239 182.983 50.239C182.775 50.239 182.567 50.226 182.359 50.2C182.307 49.9573 182.281 49.7147 182.281 49.472C182.281 49.2207 182.289 49.0343 182.307 48.913C182.497 48.8697 182.697 48.848 182.905 48.848C183.121 48.848 183.351 48.8567 183.594 48.874C183.646 49.0993 183.672 49.3203 183.672 49.537C183.672 49.745 183.663 49.953 183.646 50.161ZM188.198 57.272C188.579 57.272 189.177 57.09 189.992 56.726C190.156 56.9513 190.243 57.1507 190.252 57.324C189.81 57.584 189.376 57.7877 188.952 57.935C188.527 58.0823 188.224 58.156 188.042 58.156C187.036 58.156 186.269 57.857 185.741 57.259C185.212 56.6523 184.948 55.8073 184.948 54.724C184.948 53.6407 185.203 52.7913 185.715 52.176C186.235 51.552 187.01 51.24 188.042 51.24C188.839 51.24 189.446 51.526 189.862 52.098C190.286 52.67 190.499 53.437 190.499 54.399C190.429 54.5203 190.373 54.6027 190.33 54.646L186.144 54.581C186.152 55.4563 186.304 56.1237 186.599 56.583C186.902 57.0423 187.435 57.272 188.198 57.272ZM189.316 53.84C189.316 53.268 189.212 52.826 189.004 52.514C188.796 52.1933 188.449 52.033 187.964 52.033C187.478 52.033 187.045 52.124 186.664 52.306C186.404 52.826 186.239 53.359 186.17 53.905C186.854 53.8963 187.903 53.8747 189.316 53.84ZM194.642 58.156C193.602 58.156 192.826 57.8657 192.315 57.285C191.804 56.6957 191.548 55.8593 191.548 54.776C191.548 52.4187 192.597 51.24 194.694 51.24C195.032 51.24 195.383 51.292 195.747 51.396C196.111 51.4913 196.397 51.5997 196.605 51.721C196.579 52.527 196.497 53.099 196.358 53.437C196.202 53.4803 196.076 53.502 195.981 53.502H195.76C195.717 53.502 195.665 53.4977 195.604 53.489L195.279 52.059C194.993 52.033 194.828 52.02 194.785 52.02C194.161 52.02 193.663 52.2107 193.29 52.592C192.926 52.9733 192.744 53.6147 192.744 54.516C192.744 55.4173 192.883 56.102 193.16 56.57C193.446 57.038 193.992 57.272 194.798 57.272C195.179 57.272 195.777 57.09 196.592 56.726C196.757 56.9513 196.843 57.1507 196.852 57.324C196.41 57.584 195.977 57.7877 195.552 57.935C195.127 58.0823 194.824 58.156 194.642 58.156ZM198.642 57.194L198.538 52.293H197.537L197.498 51.838C197.585 51.7773 197.836 51.6647 198.252 51.5L199.318 49.836C199.491 49.8533 199.626 49.8967 199.721 49.966L199.708 51.396C200.358 51.396 200.891 51.4393 201.307 51.526C201.307 51.76 201.233 52.0157 201.086 52.293H199.682C199.665 53.333 199.647 54.9103 199.63 57.025C200.115 57.051 200.601 57.1377 201.086 57.285L201.073 57.74C200.952 57.818 200.64 57.909 200.137 58.013C199.643 58.117 199.236 58.169 198.915 58.169C198.872 58.0997 198.815 57.9523 198.746 57.727C198.677 57.493 198.642 57.3153 198.642 57.194Z" fill="white"/>
<path d="M134.544 76.5607C134.628 77.9882 134.405 79.0605 133.874 79.7776C133.351 80.4855 132.623 80.8669 131.688 80.9219C131.1 80.9565 130.568 80.8402 130.092 80.573C129.625 80.3053 129.269 79.7967 129.026 79.047L129.817 78.7661C129.914 79.2379 130.052 79.603 130.233 79.8616C130.421 80.1196 130.636 80.298 130.876 80.3967C131.125 80.4863 131.378 80.5234 131.638 80.5081C131.967 80.4888 132.269 80.3929 132.546 80.2204C132.83 80.0387 133.046 79.7264 133.194 79.2837C133.35 78.8404 133.404 78.2121 133.356 77.3989L133.296 76.3736C133.064 76.6999 132.783 76.9464 132.454 77.1134C132.134 77.2798 131.784 77.3742 131.403 77.3966C130.892 77.4266 130.436 77.3449 130.034 77.1515C129.641 76.9576 129.325 76.6767 129.086 76.3088C128.855 75.9316 128.725 75.4835 128.694 74.9644L128.675 74.627C128.643 74.0906 128.733 73.6209 128.943 73.2178C129.153 72.8061 129.46 72.4799 129.862 72.2391C130.265 71.9984 130.743 71.8618 131.297 71.8292C132.248 71.7732 133 72.0763 133.551 72.7384C134.102 73.4005 134.417 74.4021 134.496 75.7431L134.544 76.5607ZM129.899 74.8545C129.938 75.512 130.094 76.0281 130.368 76.4027C130.641 76.7686 131.042 76.936 131.569 76.905C131.889 76.8861 132.2 76.7854 132.502 76.6027C132.813 76.4195 133.064 76.1225 133.257 75.7118L133.218 75.0499C133.175 74.3145 133.072 73.7389 132.908 73.3232C132.754 72.9069 132.541 72.6198 132.272 72.4621C132.001 72.2956 131.676 72.2236 131.295 72.246C130.828 72.2735 130.461 72.46 130.195 72.8056C129.937 73.142 129.832 73.7082 129.878 74.5041L129.899 74.8545ZM141.96 77.9476C142 78.6311 141.804 79.2113 141.372 79.6881C140.94 80.1563 140.265 80.4174 139.348 80.4714C138.707 80.509 138.17 80.4408 137.734 80.2668C137.298 80.0841 136.966 79.8344 136.739 79.5179C136.512 79.2013 136.388 78.857 136.366 78.485C136.338 78.0092 136.472 77.5629 136.769 77.146C137.065 76.7206 137.508 76.3559 138.098 76.0521C137.564 75.8317 137.135 75.5531 136.812 75.2162C136.488 74.8706 136.309 74.421 136.277 73.8673C136.252 73.4434 136.328 73.0525 136.507 72.6947C136.685 72.3283 136.959 72.0301 137.327 71.8001C137.704 71.5609 138.169 71.425 138.722 71.3924C139.276 71.3598 139.753 71.4273 140.154 71.5947C140.563 71.7616 140.881 72.0034 141.108 72.3199C141.343 72.6273 141.472 72.9757 141.495 73.365C141.521 73.7976 141.4 74.1867 141.134 74.5322C140.868 74.8778 140.439 75.1938 139.848 75.4803C140.504 75.7109 141.009 76.0198 141.362 76.4071C141.722 76.7852 141.922 77.2987 141.96 77.9476ZM138.877 75.1338L139.436 75.3353C139.847 75.0854 140.117 74.8047 140.246 74.4933C140.384 74.1813 140.441 73.8263 140.418 73.4284C140.384 72.8573 140.216 72.4375 139.914 72.1688C139.612 71.9001 139.218 71.7799 138.734 71.8084C138.275 71.8354 137.898 71.9922 137.603 72.2787C137.315 72.5561 137.186 72.95 137.216 73.4604C137.242 73.893 137.396 74.2355 137.68 74.4879C137.964 74.7317 138.363 74.947 138.877 75.1338ZM137.442 78.3957C137.474 78.9494 137.651 79.3731 137.972 79.6667C138.293 79.9604 138.744 80.0902 139.323 80.0561C139.894 80.0225 140.327 79.8581 140.623 79.5629C140.917 79.2591 141.049 78.8433 141.018 78.3156C140.991 77.857 140.844 77.4924 140.576 77.2216C140.316 76.9417 139.894 76.6974 139.309 76.4888L138.524 76.2094C138.138 76.4318 137.852 76.7394 137.667 77.1323C137.49 77.516 137.415 77.9372 137.442 78.3957Z" fill="#A0C7F2"/>
<path d="M149.608 72.56C149.352 72.48 149.012 72.44 148.588 72.44H147.592L147.556 75.464L148.468 75.452C149.06 75.444 149.532 75.324 149.884 75.092C150.236 74.86 150.412 74.42 150.412 73.772C150.412 73.116 150.144 72.712 149.608 72.56ZM147.544 76.232L147.508 79.196L148.504 79.28C148.504 79.504 148.436 79.744 148.3 80H145.54L145.504 79.58C145.84 79.46 146.184 79.368 146.536 79.304C146.488 76.264 146.448 73.944 146.416 72.344C146.192 72.312 145.84 72.216 145.36 72.056C145.36 71.952 145.38 71.8 145.42 71.6H148.12C149.584 71.6 150.536 71.78 150.976 72.14C151.408 72.484 151.624 73.024 151.624 73.76C151.624 75 150.944 75.804 149.584 76.172L151.636 79.208L152.632 79.292C152.632 79.508 152.564 79.744 152.428 80H150.952L148.432 76.232H147.544ZM156.355 79.328C156.707 79.328 157.259 79.16 158.011 78.824C158.163 79.032 158.243 79.216 158.251 79.376C157.843 79.616 157.443 79.804 157.051 79.94C156.659 80.076 156.379 80.144 156.211 80.144C155.283 80.144 154.575 79.868 154.087 79.316C153.599 78.756 153.355 77.976 153.355 76.976C153.355 75.976 153.591 75.192 154.063 74.624C154.543 74.048 155.259 73.76 156.211 73.76C156.947 73.76 157.507 74.024 157.891 74.552C158.283 75.08 158.479 75.788 158.479 76.676C158.415 76.788 158.363 76.864 158.323 76.904L154.459 76.844C154.467 77.652 154.607 78.268 154.879 78.692C155.159 79.116 155.651 79.328 156.355 79.328ZM157.387 76.16C157.387 75.632 157.291 75.224 157.099 74.936C156.907 74.64 156.587 74.492 156.139 74.492C155.691 74.492 155.291 74.576 154.939 74.744C154.699 75.224 154.547 75.716 154.483 76.22C155.115 76.212 156.083 76.192 157.387 76.16ZM165.268 75.104C165.3 75.36 165.316 75.656 165.316 75.992C165.316 76.328 165.284 77.392 165.22 79.184L166.228 79.28C166.228 79.504 166.16 79.744 166.024 80H163.264L163.228 79.58C163.596 79.452 163.956 79.356 164.308 79.292C164.26 77.164 164.216 75.98 164.176 75.74C164.144 75.5 164.088 75.3 164.008 75.14C163.928 74.972 163.804 74.856 163.636 74.792C163.468 74.728 163.212 74.696 162.868 74.696C162.532 74.696 162.088 74.824 161.536 75.08C161.488 76.904 161.456 78.272 161.44 79.184L162.448 79.28C162.448 79.504 162.38 79.744 162.244 80H159.484L159.448 79.58C159.816 79.452 160.176 79.356 160.528 79.292C160.52 78.716 160.5 77.904 160.468 76.856C160.436 75.8 160.416 75.108 160.408 74.78C159.968 74.756 159.616 74.708 159.352 74.636L159.4 74.012C159.832 73.892 160.46 73.832 161.284 73.832C161.396 74.032 161.468 74.24 161.5 74.456C161.852 74.272 162.2 74.112 162.544 73.976C162.888 73.832 163.104 73.76 163.192 73.76C164.08 73.76 164.7 74.032 165.052 74.576C165.42 74.376 165.8 74.192 166.192 74.024C166.592 73.848 166.832 73.76 166.912 73.76C167.64 73.76 168.184 73.94 168.544 74.3C168.912 74.652 169.096 75.232 169.096 76.04C169.096 76.28 169.064 77.328 169 79.184L170.008 79.28C170.008 79.504 169.94 79.744 169.804 80H167.044L167.008 79.58C167.376 79.452 167.736 79.356 168.088 79.292C168.056 78.028 168.028 77.072 168.004 76.424C167.98 75.776 167.888 75.328 167.728 75.08C167.568 74.824 167.248 74.696 166.768 74.696C166.288 74.696 165.788 74.832 165.268 75.104ZM175.381 76.076L175.321 79.172C175.665 79.196 176.009 79.252 176.353 79.34L176.329 79.76C176.201 79.824 175.969 79.896 175.633 79.976C175.305 80.048 174.981 80.084 174.661 80.084C174.517 79.796 174.437 79.52 174.421 79.256C173.509 79.856 172.869 80.156 172.501 80.156C171.933 80.156 171.477 80.004 171.133 79.7C170.789 79.396 170.617 78.972 170.617 78.428C170.617 77.172 171.385 76.524 172.921 76.484C173.817 76.46 174.269 76.448 174.277 76.448L174.265 76.04C174.249 75.488 174.145 75.092 173.953 74.852C173.761 74.604 173.417 74.48 172.921 74.48C172.713 74.48 172.489 74.528 172.249 74.624L171.961 75.824C171.921 75.832 171.853 75.836 171.757 75.836L171.265 75.8C171.137 75.456 171.069 74.98 171.061 74.372C171.213 74.292 171.561 74.172 172.105 74.012C172.649 73.844 172.997 73.76 173.149 73.76C173.965 73.76 174.541 73.94 174.877 74.3C175.213 74.66 175.381 75.252 175.381 76.076ZM172.765 79.34C172.997 79.34 173.533 79.08 174.373 78.56L174.313 77.06C173.769 77.108 173.313 77.152 172.945 77.192C172.577 77.232 172.281 77.34 172.057 77.516C171.833 77.684 171.721 77.952 171.721 78.32C171.721 79 172.069 79.34 172.765 79.34ZM179.186 72.764C178.978 72.812 178.774 72.836 178.574 72.836C178.382 72.836 178.19 72.824 177.998 72.8C177.95 72.576 177.926 72.352 177.926 72.128C177.926 71.896 177.934 71.724 177.95 71.612C178.126 71.572 178.31 71.552 178.502 71.552C178.702 71.552 178.914 71.56 179.138 71.576C179.186 71.784 179.21 71.988 179.21 72.188C179.21 72.38 179.202 72.572 179.186 72.764ZM177.002 74.024C177.682 73.904 178.21 73.844 178.586 73.844C178.962 73.844 179.202 73.852 179.306 73.868C179.306 74.06 179.282 74.272 179.234 74.504C179.186 74.736 179.158 74.848 179.15 74.84L179.042 79.184L180.05 79.28C180.05 79.504 179.982 79.744 179.846 80H177.086L177.05 79.58C177.418 79.452 177.778 79.356 178.13 79.292C178.082 77.292 178.042 75.792 178.01 74.792C177.546 74.792 177.194 74.744 176.954 74.648L177.002 74.024ZM184.461 73.76C185.229 73.76 185.785 73.952 186.129 74.336C186.473 74.712 186.645 75.288 186.645 76.064C186.645 76.288 186.613 77.328 186.549 79.184L187.557 79.28C187.557 79.504 187.489 79.744 187.353 80H184.593L184.557 79.58C184.925 79.452 185.285 79.356 185.637 79.292C185.589 77.196 185.545 76.032 185.505 75.8C185.473 75.56 185.417 75.352 185.337 75.176C185.257 75 185.137 74.876 184.977 74.804C184.817 74.732 184.605 74.696 184.341 74.696C183.813 74.696 183.301 74.824 182.805 75.08C182.757 76.904 182.725 78.272 182.709 79.184L183.717 79.28C183.717 79.504 183.649 79.744 183.513 80H180.753L180.717 79.58C181.085 79.452 181.445 79.356 181.797 79.292C181.749 77.26 181.709 75.756 181.677 74.78C181.237 74.756 180.885 74.708 180.621 74.636L180.669 74.012C181.101 73.892 181.729 73.832 182.553 73.832C182.649 73.976 182.721 74.184 182.769 74.456C183.113 74.272 183.457 74.112 183.801 73.976C184.153 73.832 184.373 73.76 184.461 73.76ZM190.272 72.764C190.064 72.812 189.86 72.836 189.66 72.836C189.468 72.836 189.276 72.824 189.084 72.8C189.036 72.576 189.012 72.352 189.012 72.128C189.012 71.896 189.02 71.724 189.036 71.612C189.212 71.572 189.396 71.552 189.588 71.552C189.788 71.552 190 71.56 190.224 71.576C190.272 71.784 190.296 71.988 190.296 72.188C190.296 72.38 190.288 72.572 190.272 72.764ZM188.088 74.024C188.768 73.904 189.296 73.844 189.672 73.844C190.048 73.844 190.288 73.852 190.392 73.868C190.392 74.06 190.368 74.272 190.32 74.504C190.272 74.736 190.244 74.848 190.236 74.84L190.128 79.184L191.136 79.28C191.136 79.504 191.068 79.744 190.932 80H188.172L188.136 79.58C188.504 79.452 188.864 79.356 189.216 79.292C189.168 77.292 189.128 75.792 189.096 74.792C188.632 74.792 188.28 74.744 188.04 74.648L188.088 74.024ZM195.547 73.76C196.315 73.76 196.871 73.952 197.215 74.336C197.559 74.712 197.731 75.288 197.731 76.064C197.731 76.288 197.699 77.328 197.635 79.184L198.643 79.28C198.643 79.504 198.575 79.744 198.439 80H195.679L195.643 79.58C196.011 79.452 196.371 79.356 196.723 79.292C196.675 77.196 196.631 76.032 196.591 75.8C196.559 75.56 196.503 75.352 196.423 75.176C196.343 75 196.223 74.876 196.063 74.804C195.903 74.732 195.691 74.696 195.427 74.696C194.899 74.696 194.387 74.824 193.891 75.08C193.843 76.904 193.811 78.272 193.795 79.184L194.803 79.28C194.803 79.504 194.735 79.744 194.599 80H191.839L191.803 79.58C192.171 79.452 192.531 79.356 192.883 79.292C192.835 77.26 192.795 75.756 192.763 74.78C192.323 74.756 191.971 74.708 191.707 74.636L191.755 74.012C192.187 73.892 192.815 73.832 193.639 73.832C193.735 73.976 193.807 74.184 193.855 74.456C194.199 74.272 194.543 74.112 194.887 73.976C195.239 73.832 195.459 73.76 195.547 73.76ZM202.366 79.268L203.434 79.244C204.538 79.244 205.09 79.7 205.09 80.612C205.09 81.036 204.906 81.428 204.538 81.788C204.178 82.156 203.746 82.432 203.242 82.616C202.738 82.8 202.266 82.892 201.826 82.892C201.394 82.892 200.99 82.828 200.614 82.7C200.238 82.58 199.918 82.38 199.654 82.1C199.39 81.82 199.258 81.496 199.258 81.128C199.258 81.04 199.398 80.808 199.678 80.432C199.966 80.064 200.154 79.848 200.242 79.784C200.17 79.736 200.03 79.6 199.822 79.376C199.614 79.144 199.498 78.984 199.474 78.896C199.674 78.528 199.99 78.168 200.422 77.816C199.782 77.432 199.462 76.8 199.462 75.92C199.462 75.216 199.686 74.68 200.134 74.312C200.582 73.944 201.142 73.76 201.814 73.76C202.486 73.76 203.006 73.868 203.374 74.084C204.014 73.956 204.642 73.892 205.258 73.892C205.41 73.892 205.486 73.984 205.486 74.168C205.486 74.488 205.426 74.708 205.306 74.828L203.926 74.6C204.214 74.968 204.358 75.408 204.358 75.92C204.358 76.72 204.122 77.296 203.65 77.648C203.178 77.992 202.598 78.164 201.91 78.164C201.694 78.164 201.438 78.136 201.142 78.08C201.022 78.328 200.87 78.596 200.686 78.884C200.83 79.14 201.39 79.268 202.366 79.268ZM203.89 81.476C203.97 81.252 204.01 81.02 204.01 80.78C204.01 80.548 203.918 80.36 203.734 80.216C203.55 80.072 203.314 80 203.026 80C201.882 80 201.182 79.988 200.926 79.964C200.71 80.308 200.558 80.596 200.47 80.828C200.39 81.068 200.35 81.204 200.35 81.236C200.35 81.548 200.498 81.78 200.794 81.932C201.09 82.084 201.43 82.16 201.814 82.16C202.206 82.16 202.598 82.096 202.99 81.968C203.39 81.84 203.69 81.676 203.89 81.476ZM203.278 75.968C203.278 74.976 202.822 74.48 201.91 74.48C200.998 74.48 200.542 74.96 200.542 75.92C200.542 76.408 200.662 76.784 200.902 77.048C201.142 77.312 201.49 77.444 201.946 77.444C202.834 77.444 203.278 76.952 203.278 75.968Z" fill="#A0C7F2"/>
<defs>
<linearGradient id="paint0_linear_119_21" x1="0" y1="46" x2="337" y2="46" gradientUnits="userSpaceOnUse">
<stop offset="0.11" stop-color="#4994CE"/>
<stop offset="0.79" stop-color="#295DCF"/>
</linearGradient>
</defs>
</svg>
