<svg width="122" height="92" viewBox="0 0 122 92" fill="none" xmlns="http://www.w3.org/2000/svg">
<rect width="122" height="92" rx="8" fill="url(#paint0_linear_139_2)"/>
<path d="M49.242 42.758L46.564 51H45.212L42.235 42.667C41.8883 42.5977 41.4983 42.4937 41.065 42.355L41.104 41.9H44.484C44.6313 42.1773 44.705 42.4373 44.705 42.68C44.2803 42.706 43.8903 42.732 43.535 42.758L45.836 49.635H45.901C46.0917 48.985 46.8153 46.6623 48.072 42.667C47.7253 42.615 47.318 42.511 46.85 42.355L46.889 41.9H50.152C50.2993 42.1773 50.373 42.4373 50.373 42.68C49.9743 42.706 49.5973 42.732 49.242 42.758ZM53.3041 43.161C53.0788 43.213 52.8578 43.239 52.6411 43.239C52.4331 43.239 52.2251 43.226 52.0171 43.2C51.9651 42.9573 51.9391 42.7147 51.9391 42.472C51.9391 42.2207 51.9478 42.0343 51.9651 41.913C52.1558 41.8697 52.3551 41.848 52.5631 41.848C52.7798 41.848 53.0094 41.8567 53.2521 41.874C53.3041 42.0993 53.3301 42.3203 53.3301 42.537C53.3301 42.745 53.3214 42.953 53.3041 43.161ZM50.9381 44.526C51.6748 44.396 52.2468 44.331 52.6541 44.331C53.0614 44.331 53.3214 44.3397 53.4341 44.357C53.4341 44.565 53.4081 44.7947 53.3561 45.046C53.3041 45.2973 53.2738 45.4187 53.2651 45.41L53.1481 50.116L54.2401 50.22C54.2401 50.4627 54.1664 50.7227 54.0191 51H51.0291L50.9901 50.545C51.3888 50.4063 51.7788 50.3023 52.1601 50.233C52.1081 48.0663 52.0648 46.4413 52.0301 45.358C51.5274 45.358 51.1461 45.306 50.8861 45.202L50.9381 44.526ZM59.4351 44.981L59.3961 42.381C58.9195 42.355 58.5381 42.303 58.2521 42.225L58.3041 41.549C58.7461 41.419 59.3875 41.354 60.2281 41.354C60.4968 41.354 60.6875 41.3627 60.8001 41.38C60.8001 41.536 60.7741 41.744 60.7221 42.004C60.6788 42.2553 60.6485 42.394 60.6311 42.42L60.5141 50.103C60.8695 50.1203 61.2465 50.181 61.6451 50.285L61.6191 50.74C61.0211 51.0173 60.4925 51.156 60.0331 51.156C59.9378 51.156 59.8641 51.1517 59.8121 51.143C59.7428 51.013 59.6561 50.714 59.5521 50.246C58.5555 50.8093 57.8578 51.1127 57.4591 51.156C56.6271 51.156 56.0031 50.8397 55.5871 50.207C55.1711 49.5743 54.9631 48.764 54.9631 47.776C54.9631 46.7793 55.1711 45.943 55.5871 45.267C56.0118 44.5823 56.6358 44.24 57.4591 44.24C58.1005 44.24 58.7591 44.487 59.4351 44.981ZM57.6801 45.124C56.6661 45.124 56.1591 45.956 56.1591 47.62C56.1591 48.27 56.2631 48.8333 56.4711 49.31C56.5751 49.57 56.7268 49.778 56.9261 49.934C57.1341 50.09 57.3725 50.168 57.6411 50.168C57.9098 50.168 58.2218 50.1073 58.5771 49.986C58.9411 49.8647 59.2531 49.726 59.5131 49.57L59.4351 45.865C59.2011 45.6657 58.9151 45.4923 58.5771 45.345C58.2391 45.1977 57.9401 45.124 57.6801 45.124ZM65.6157 50.272C65.997 50.272 66.595 50.09 67.4097 49.726C67.5744 49.9513 67.661 50.1507 67.6697 50.324C67.2277 50.584 66.7944 50.7877 66.3697 50.935C65.945 51.0823 65.6417 51.156 65.4597 51.156C64.4544 51.156 63.6874 50.857 63.1587 50.259C62.63 49.6523 62.3657 48.8073 62.3657 47.724C62.3657 46.6407 62.6214 45.7913 63.1327 45.176C63.6527 44.552 64.4284 44.24 65.4597 44.24C66.257 44.24 66.8637 44.526 67.2797 45.098C67.7044 45.67 67.9167 46.437 67.9167 47.399C67.8474 47.5203 67.791 47.6027 67.7477 47.646L63.5617 47.581C63.5704 48.4563 63.722 49.1237 64.0167 49.583C64.32 50.0423 64.853 50.272 65.6157 50.272ZM66.7337 46.84C66.7337 46.268 66.6297 45.826 66.4217 45.514C66.2137 45.1933 65.867 45.033 65.3817 45.033C64.8964 45.033 64.463 45.124 64.0817 45.306C63.8217 45.826 63.657 46.359 63.5877 46.905C64.2724 46.8963 65.321 46.8747 66.7337 46.84ZM71.969 50.376C72.697 50.376 73.1867 50.1507 73.438 49.7C73.698 49.2407 73.828 48.5907 73.828 47.75C73.828 46.4153 73.5334 45.579 72.944 45.241C72.7014 45.1023 72.359 45.033 71.917 45.033C71.4837 45.033 71.072 45.124 70.682 45.306C70.3354 45.9733 70.162 46.749 70.162 47.633C70.162 48.4823 70.2747 49.1367 70.5 49.596C70.76 50.116 71.2497 50.376 71.969 50.376ZM68.966 47.75C68.966 46.6493 69.2174 45.7913 69.72 45.176C70.2227 44.552 70.9984 44.24 72.047 44.24C73.0957 44.24 73.854 44.526 74.322 45.098C74.79 45.6613 75.024 46.4977 75.024 47.607C75.024 48.7163 74.7727 49.5873 74.27 50.22C73.776 50.8527 73.022 51.169 72.008 51.169C70.994 51.169 70.2314 50.8743 69.72 50.285C69.2174 49.6957 68.966 48.8507 68.966 47.75ZM77.6252 41.445C77.6772 41.6877 77.7032 41.9997 77.7032 42.381C77.7032 42.7623 77.5515 43.174 77.2482 43.616C76.9535 44.058 76.6805 44.357 76.4292 44.513C76.2818 44.4523 76.1432 44.3527 76.0132 44.214C76.1085 43.928 76.3772 43.5293 76.8192 43.018C76.9318 42.888 76.9968 42.8143 77.0142 42.797C76.7108 42.797 76.5028 42.7883 76.3902 42.771C76.3382 42.6063 76.3122 42.381 76.3122 42.095C76.3122 41.809 76.3208 41.6053 76.3382 41.484C76.5288 41.4407 76.7282 41.419 76.9362 41.419C77.1528 41.419 77.3825 41.4277 77.6252 41.445ZM79.9601 50.168C80.2634 50.298 80.6318 50.363 81.0651 50.363C81.5071 50.363 81.8538 50.2807 82.1051 50.116C82.3564 49.9513 82.4821 49.726 82.4821 49.44C82.4821 49.154 82.3651 48.9157 82.1311 48.725C81.8971 48.5343 81.6111 48.3653 81.2731 48.218C80.9351 48.0707 80.5971 47.9147 80.2591 47.75C79.9211 47.5853 79.6351 47.3687 79.4011 47.1C79.1671 46.8313 79.0501 46.5193 79.0501 46.164C79.0501 45.566 79.2494 45.098 79.6481 44.76C80.0468 44.4133 80.5971 44.24 81.2991 44.24C82.0098 44.24 82.6771 44.4003 83.3011 44.721C83.3098 44.8077 83.3141 45.0417 83.3141 45.423C83.3141 45.7957 83.2751 46.1163 83.1971 46.385C82.9891 46.4543 82.7421 46.489 82.4561 46.489L82.0271 45.163C81.8364 45.0677 81.5764 45.02 81.2471 45.02C80.9264 45.02 80.6708 45.1067 80.4801 45.28C80.2894 45.4447 80.1941 45.657 80.1941 45.917C80.1941 46.1683 80.3111 46.3893 80.5451 46.58C80.7878 46.7707 81.0781 46.944 81.4161 47.1C81.7541 47.2473 82.0921 47.4077 82.4301 47.581C82.7681 47.7457 83.0541 47.9667 83.2881 48.244C83.5308 48.5127 83.6521 48.8247 83.6521 49.18C83.6521 49.804 83.4094 50.2937 82.9241 50.649C82.4474 50.9957 81.8581 51.169 81.1561 51.169C80.7748 51.169 80.3674 51.1083 79.9341 50.987C79.5008 50.857 79.1368 50.6923 78.8421 50.493C78.8421 49.9123 78.8941 49.3967 78.9981 48.946C79.1974 48.9113 79.4661 48.894 79.8041 48.894L79.9601 50.168Z" fill="white"/>
<defs>
<linearGradient id="paint0_linear_139_2" x1="0" y1="46" x2="122" y2="46" gradientUnits="userSpaceOnUse">
<stop offset="0.11" stop-color="#4994CE"/>
<stop offset="0.79" stop-color="#295DCF"/>
</linearGradient>
</defs>
</svg>
