<svg width="22" height="41" viewBox="0 0 22 41" fill="none" xmlns="http://www.w3.org/2000/svg">
<path d="M4.88068 39V31.7273H7.4233C7.92992 31.7273 8.34777 31.8149 8.67685 31.9901C9.00592 32.1629 9.25095 32.3961 9.41193 32.6896C9.57292 32.9808 9.65341 33.304 9.65341 33.6591C9.65341 33.9716 9.59777 34.2296 9.48651 34.4332C9.3776 34.6368 9.23319 34.7978 9.05327 34.9162C8.87571 35.0346 8.68277 35.1222 8.47443 35.179V35.25C8.69697 35.2642 8.92069 35.3423 9.1456 35.4844C9.3705 35.6264 9.55871 35.83 9.71023 36.0952C9.86174 36.3603 9.9375 36.6847 9.9375 37.0682C9.9375 37.4328 9.85464 37.7607 9.68892 38.0518C9.5232 38.343 9.2616 38.5739 8.90412 38.7443C8.54664 38.9148 8.08144 39 7.50852 39H4.88068ZM5.76136 38.2188H7.50852C8.08381 38.2188 8.49219 38.1075 8.73366 37.8849C8.97751 37.66 9.09943 37.3878 9.09943 37.0682C9.09943 36.822 9.0367 36.5947 8.91122 36.3864C8.78575 36.1757 8.60701 36.0076 8.375 35.8821C8.14299 35.7543 7.86837 35.6903 7.55114 35.6903H5.76136V38.2188ZM5.76136 34.9233H7.39489C7.66004 34.9233 7.89915 34.8712 8.11222 34.767C8.32765 34.6629 8.49811 34.5161 8.62358 34.3267C8.75142 34.1373 8.81534 33.9148 8.81534 33.6591C8.81534 33.3395 8.70407 33.0684 8.48153 32.8459C8.259 32.621 7.90625 32.5085 7.4233 32.5085H5.76136V34.9233ZM16.3562 34C16.2781 33.7609 16.1751 33.5466 16.0472 33.3572C15.9218 33.1655 15.7714 33.0021 15.5962 32.8672C15.4234 32.7322 15.2269 32.6293 15.0067 32.5582C14.7866 32.4872 14.5451 32.4517 14.2823 32.4517C13.8514 32.4517 13.4596 32.563 13.1069 32.7855C12.7541 33.008 12.4736 33.3359 12.2653 33.7692C12.0569 34.2024 11.9528 34.7339 11.9528 35.3636C11.9528 35.9934 12.0581 36.5249 12.2688 36.9581C12.4795 37.3913 12.7648 37.7192 13.1246 37.9418C13.4845 38.1643 13.8893 38.2756 14.3391 38.2756C14.7558 38.2756 15.1228 38.1868 15.44 38.0092C15.7596 37.8293 16.0082 37.576 16.1857 37.2493C16.3656 36.9202 16.4556 36.5331 16.4556 36.0881L16.7255 36.1449H14.538V35.3636H17.3079V36.1449C17.3079 36.7438 17.18 37.2647 16.9244 37.7074C16.671 38.1501 16.3207 38.4934 15.8732 38.7372C15.4281 38.9787 14.9168 39.0994 14.3391 39.0994C13.6952 39.0994 13.1294 38.9479 12.6417 38.6449C12.1564 38.3419 11.7776 37.911 11.5053 37.3523C11.2354 36.7936 11.1005 36.1307 11.1005 35.3636C11.1005 34.7884 11.1774 34.2711 11.3313 33.8118C11.4876 33.3501 11.7077 32.9571 11.9918 32.6328C12.2759 32.3085 12.6121 32.0599 13.0004 31.8871C13.3886 31.7143 13.8159 31.6278 14.2823 31.6278C14.6658 31.6278 15.0233 31.6858 15.3548 31.8018C15.6886 31.9155 15.9857 32.0777 16.2461 32.2884C16.5089 32.4967 16.7279 32.7464 16.9031 33.0376C17.0782 33.3265 17.199 33.6473 17.2653 34H16.3562Z" fill="white"/>
<path d="M1 11C1 6.286 1 3.929 2.464 2.464C3.93 1 6.286 1 11 1C15.714 1 18.071 1 19.535 2.464C21 3.93 21 6.286 21 11C21 15.714 21 18.071 19.535 19.535C18.072 21 15.714 21 11 21C6.286 21 3.929 21 2.464 19.535C1 18.072 1 15.714 1 11Z" stroke="#F8F8F8" stroke-width="1.5"/>
<g clip-path="url(#clip0_161_22)">
<path d="M18.1523 4.45948C18.3011 4.62357 18.379 4.84034 18.3691 5.0622C18.3592 5.28406 18.2622 5.49286 18.0994 5.64276L5.03881 17.6697C4.9588 17.7476 4.86409 17.8085 4.76026 17.8489C4.65644 17.8893 4.54562 17.9083 4.43436 17.9048C4.3231 17.9014 4.21364 17.8755 4.11247 17.8287C4.0113 17.782 3.92047 17.7153 3.84534 17.6326C3.77022 17.5499 3.71232 17.4529 3.67508 17.3473C3.63784 17.2417 3.622 17.1296 3.62851 17.0178C3.63503 16.906 3.66375 16.7966 3.713 16.6961C3.76224 16.5956 3.83099 16.5061 3.9152 16.4329L16.9758 4.40593C17.1388 4.25627 17.3542 4.17785 17.5746 4.18789C17.795 4.19794 18.0034 4.2956 18.1523 4.45948ZM18.2708 9.80149C18.4196 9.96558 18.4975 10.1824 18.4876 10.4042C18.4777 10.6261 18.3807 10.8349 18.2179 10.9848L11.1048 17.536C11.0241 17.6103 10.9296 17.6678 10.8268 17.7054C10.724 17.7429 10.6148 17.7597 10.5055 17.7548C10.3962 17.7498 10.289 17.7233 10.1899 17.6766C10.0908 17.63 10.0017 17.5641 9.92791 17.4829C9.85408 17.4016 9.79686 17.3065 9.75954 17.203C9.72222 17.0995 9.70552 16.9896 9.71038 16.8796C9.71525 16.7696 9.7416 16.6617 9.78792 16.5619C9.83424 16.4622 9.89963 16.3726 9.98035 16.2983L17.0935 9.74796C17.1742 9.6736 17.2687 9.61599 17.3716 9.57843C17.4745 9.54087 17.5838 9.5241 17.6931 9.52907C17.8025 9.53404 17.9098 9.56066 18.0089 9.6074C18.108 9.65415 18.197 9.7201 18.2708 9.80149ZM17.2027 14.671C17.3586 14.5253 17.5641 14.4452 17.7769 14.4473C17.9897 14.4493 18.1937 14.5332 18.347 14.6818C18.5003 14.8305 18.5912 15.0325 18.6012 15.2465C18.6111 15.4605 18.5393 15.6701 18.4004 15.8324L18.3272 15.9086L16.6946 17.412C16.5383 17.5561 16.3334 17.6348 16.1214 17.6321C15.9095 17.6294 15.7065 17.5454 15.5539 17.3973C15.4013 17.2492 15.3105 17.0482 15.3001 16.8351C15.2896 16.622 15.3603 16.413 15.4977 16.2506L15.5709 16.1743L17.2027 14.671ZM12.0872 4.59401C12.236 4.75799 12.3141 4.97469 12.3044 5.19655C12.2946 5.4184 12.1978 5.62726 12.0351 5.77727L4.92201 12.3285C4.84129 12.4028 4.74682 12.4603 4.64399 12.4979C4.54116 12.5354 4.43198 12.5522 4.32269 12.5473C4.21341 12.5423 4.10615 12.5158 4.00705 12.4691C3.90795 12.4225 3.81894 12.3566 3.7451 12.2754C3.67127 12.1941 3.61406 12.099 3.57674 11.9955C3.53941 11.892 3.52271 11.7821 3.52758 11.6721C3.53245 11.5621 3.5588 11.4542 3.60512 11.3544C3.65144 11.2547 3.71682 11.1651 3.79754 11.0908L10.9107 4.54046C11.0737 4.3908 11.289 4.31238 11.5095 4.32242C11.7299 4.33247 11.9374 4.43015 12.0864 4.59403L12.0872 4.59401ZM5.67643 4.65656C5.83266 4.51245 6.03763 4.43373 6.24957 4.43646C6.46151 4.43918 6.66446 4.52314 6.81707 4.67123C6.96968 4.81932 7.06046 5.02038 7.07091 5.23346C7.08137 5.44653 7.01071 5.65557 6.87333 5.81799L6.80089 5.89421L4.81978 7.7197C4.66444 7.86913 4.45769 7.9523 4.24278 7.95184C4.02787 7.95138 3.82143 7.86731 3.66664 7.71721C3.51185 7.56711 3.42068 7.36261 3.41221 7.14647C3.40374 6.93033 3.47862 6.71928 3.62119 6.55747L3.69447 6.48123L5.67643 4.65656Z" fill="#8B8C8E"/>
</g>
<defs>
<clipPath id="clip0_161_22">
<rect width="20" height="20" fill="white" transform="translate(1 1)"/>
</clipPath>
</defs>
</svg>
