<svg width="20" height="40" viewBox="0 0 20 40" fill="none" xmlns="http://www.w3.org/2000/svg">
<path d="M1.88068 38V30.7273H4.4233C4.92992 30.7273 5.34777 30.8149 5.67685 30.9901C6.00592 31.1629 6.25095 31.3961 6.41193 31.6896C6.57292 31.9808 6.65341 32.304 6.65341 32.6591C6.65341 32.9716 6.59777 33.2296 6.48651 33.4332C6.3776 33.6368 6.23319 33.7978 6.05327 33.9162C5.87571 34.0346 5.68277 34.1222 5.47443 34.179V34.25C5.69697 34.2642 5.92069 34.3423 6.1456 34.4844C6.3705 34.6264 6.55871 34.83 6.71023 35.0952C6.86174 35.3603 6.9375 35.6847 6.9375 36.0682C6.9375 36.4328 6.85464 36.7607 6.68892 37.0518C6.5232 37.343 6.2616 37.5739 5.90412 37.7443C5.54664 37.9148 5.08144 38 4.50852 38H1.88068ZM2.76136 37.2188H4.50852C5.08381 37.2188 5.49219 37.1075 5.73366 36.8849C5.97751 36.66 6.09943 36.3878 6.09943 36.0682C6.09943 35.822 6.0367 35.5947 5.91122 35.3864C5.78575 35.1757 5.60701 35.0076 5.375 34.8821C5.14299 34.7543 4.86837 34.6903 4.55114 34.6903H2.76136V37.2188ZM2.76136 33.9233H4.39489C4.66004 33.9233 4.89915 33.8712 5.11222 33.767C5.32765 33.6629 5.49811 33.5161 5.62358 33.3267C5.75142 33.1373 5.81534 32.9148 5.81534 32.6591C5.81534 32.3395 5.70407 32.0684 5.48153 31.8459C5.259 31.621 4.90625 31.5085 4.4233 31.5085H2.76136V33.9233ZM9.10902 30.7273V38H8.27095V30.7273H9.10902ZM14.0815 35.7699V32.5455H14.9196V38H14.0815V37.0767H14.0247C13.8968 37.3537 13.698 37.5893 13.4281 37.7834C13.1582 37.9751 12.8173 38.071 12.4054 38.071C12.0645 38.071 11.7614 37.9964 11.4963 37.8473C11.2311 37.6958 11.0228 37.4685 10.8713 37.1655C10.7198 36.8601 10.644 36.4754 10.644 36.0114V32.5455H11.4821V35.9545C11.4821 36.3523 11.5933 36.6695 11.8159 36.9062C12.0408 37.143 12.3272 37.2614 12.6752 37.2614C12.8836 37.2614 13.0955 37.2081 13.3109 37.1016C13.5287 36.995 13.711 36.8317 13.8578 36.6115C14.0069 36.3913 14.0815 36.1108 14.0815 35.7699ZM16.4545 38V32.5455H17.2642V33.3693H17.321C17.4205 33.0994 17.6004 32.8804 17.8608 32.7124C18.1212 32.5443 18.4148 32.4602 18.7415 32.4602C18.803 32.4602 18.88 32.4614 18.9723 32.4638C19.0646 32.4661 19.1345 32.4697 19.1818 32.4744V33.3267C19.1534 33.3196 19.0883 33.3089 18.9865 33.2947C18.8871 33.2782 18.7817 33.2699 18.6705 33.2699C18.4053 33.2699 18.1686 33.3255 17.9602 33.4368C17.7543 33.5457 17.5909 33.6972 17.4702 33.8913C17.3518 34.0831 17.2926 34.3021 17.2926 34.5483V38H16.4545Z" fill="white"/>
<path d="M3.5 10.5C2.95 10.5 2.5 10.95 2.5 11.5C2.5 12.05 2.95 12.5 3.5 12.5C4.05 12.5 4.5 12.05 4.5 11.5C4.5 10.95 4.05 10.5 3.5 10.5ZM3.5 14.5C2.95 14.5 2.5 14.95 2.5 15.5C2.5 16.05 2.95 16.5 3.5 16.5C4.05 16.5 4.5 16.05 4.5 15.5C4.5 14.95 4.05 14.5 3.5 14.5ZM3.5 6.5C2.95 6.5 2.5 6.95 2.5 7.5C2.5 8.05 2.95 8.5 3.5 8.5C4.05 8.5 4.5 8.05 4.5 7.5C4.5 6.95 4.05 6.5 3.5 6.5ZM0.5 7C0.22 7 0 7.22 0 7.5C0 7.78 0.22 8 0.5 8C0.78 8 1 7.78 1 7.5C1 7.22 0.78 7 0.5 7ZM3.5 2.5C2.95 2.5 2.5 2.95 2.5 3.5C2.5 4.05 2.95 4.5 3.5 4.5C4.05 4.5 4.5 4.05 4.5 3.5C4.5 2.95 4.05 2.5 3.5 2.5ZM18.5 8C18.78 8 19 7.78 19 7.5C19 7.22 18.78 7 18.5 7C18.22 7 18 7.22 18 7.5C18 7.78 18.22 8 18.5 8ZM11.5 4.5C12.05 4.5 12.5 4.05 12.5 3.5C12.5 2.95 12.05 2.5 11.5 2.5C10.95 2.5 10.5 2.95 10.5 3.5C10.5 4.05 10.95 4.5 11.5 4.5ZM11.5 1C11.78 1 12 0.78 12 0.5C12 0.22 11.78 0 11.5 0C11.22 0 11 0.22 11 0.5C11 0.78 11.22 1 11.5 1ZM0.5 11C0.22 11 0 11.22 0 11.5C0 11.78 0.22 12 0.5 12C0.78 12 1 11.78 1 11.5C1 11.22 0.78 11 0.5 11ZM7.5 18C7.22 18 7 18.22 7 18.5C7 18.78 7.22 19 7.5 19C7.78 19 8 18.78 8 18.5C8 18.22 7.78 18 7.5 18ZM7.5 1C7.78 1 8 0.78 8 0.5C8 0.22 7.78 0 7.5 0C7.22 0 7 0.22 7 0.5C7 0.78 7.22 1 7.5 1ZM7.5 4.5C8.05 4.5 8.5 4.05 8.5 3.5C8.5 2.95 8.05 2.5 7.5 2.5C6.95 2.5 6.5 2.95 6.5 3.5C6.5 4.05 6.95 4.5 7.5 4.5ZM7.5 10C6.67 10 6 10.67 6 11.5C6 12.33 6.67 13 7.5 13C8.33 13 9 12.33 9 11.5C9 10.67 8.33 10 7.5 10ZM15.5 10.5C14.95 10.5 14.5 10.95 14.5 11.5C14.5 12.05 14.95 12.5 15.5 12.5C16.05 12.5 16.5 12.05 16.5 11.5C16.5 10.95 16.05 10.5 15.5 10.5ZM15.5 14.5C14.95 14.5 14.5 14.95 14.5 15.5C14.5 16.05 14.95 16.5 15.5 16.5C16.05 16.5 16.5 16.05 16.5 15.5C16.5 14.95 16.05 14.5 15.5 14.5ZM15.5 6.5C14.95 6.5 14.5 6.95 14.5 7.5C14.5 8.05 14.95 8.5 15.5 8.5C16.05 8.5 16.5 8.05 16.5 7.5C16.5 6.95 16.05 6.5 15.5 6.5ZM15.5 2.5C14.95 2.5 14.5 2.95 14.5 3.5C14.5 4.05 14.95 4.5 15.5 4.5C16.05 4.5 16.5 4.05 16.5 3.5C16.5 2.95 16.05 2.5 15.5 2.5ZM18.5 11C18.22 11 18 11.22 18 11.5C18 11.78 18.22 12 18.5 12C18.78 12 19 11.78 19 11.5C19 11.22 18.78 11 18.5 11ZM11.5 14.5C10.95 14.5 10.5 14.95 10.5 15.5C10.5 16.05 10.95 16.5 11.5 16.5C12.05 16.5 12.5 16.05 12.5 15.5C12.5 14.95 12.05 14.5 11.5 14.5ZM11.5 18C11.22 18 11 18.22 11 18.5C11 18.78 11.22 19 11.5 19C11.78 19 12 18.78 12 18.5C12 18.22 11.78 18 11.5 18ZM7.5 6C6.67 6 6 6.67 6 7.5C6 8.33 6.67 9 7.5 9C8.33 9 9 8.33 9 7.5C9 6.67 8.33 6 7.5 6ZM7.5 14.5C6.95 14.5 6.5 14.95 6.5 15.5C6.5 16.05 6.95 16.5 7.5 16.5C8.05 16.5 8.5 16.05 8.5 15.5C8.5 14.95 8.05 14.5 7.5 14.5ZM11.5 10C10.67 10 10 10.67 10 11.5C10 12.33 10.67 13 11.5 13C12.33 13 13 12.33 13 11.5C13 10.67 12.33 10 11.5 10ZM11.5 6C10.67 6 10 6.67 10 7.5C10 8.33 10.67 9 11.5 9C12.33 9 13 8.33 13 7.5C13 6.67 12.33 6 11.5 6Z" fill="#F8F8F8"/>
</svg>
