<svg width="32" height="41" viewBox="0 0 32 41" fill="none" xmlns="http://www.w3.org/2000/svg">
<path d="M0.880682 39V31.7273H3.4233C3.92992 31.7273 4.34777 31.8149 4.67685 31.9901C5.00592 32.1629 5.25095 32.3961 5.41193 32.6896C5.57292 32.9808 5.65341 33.304 5.65341 33.6591C5.65341 33.9716 5.59777 34.2296 5.48651 34.4332C5.3776 34.6368 5.23319 34.7978 5.05327 34.9162C4.87571 35.0346 4.68277 35.1222 4.47443 35.179V35.25C4.69697 35.2642 4.92069 35.3423 5.1456 35.4844C5.3705 35.6264 5.55871 35.83 5.71023 36.0952C5.86174 36.3603 5.9375 36.6847 5.9375 37.0682C5.9375 37.4328 5.85464 37.7607 5.68892 38.0518C5.5232 38.343 5.2616 38.5739 4.90412 38.7443C4.54664 38.9148 4.08144 39 3.50852 39H0.880682ZM1.76136 38.2188H3.50852C4.08381 38.2188 4.49219 38.1075 4.73366 37.8849C4.97751 37.66 5.09943 37.3878 5.09943 37.0682C5.09943 36.822 5.0367 36.5947 4.91122 36.3864C4.78575 36.1757 4.60701 36.0076 4.375 35.8821C4.14299 35.7543 3.86837 35.6903 3.55114 35.6903H1.76136V38.2188ZM1.76136 34.9233H3.39489C3.66004 34.9233 3.89915 34.8712 4.11222 34.767C4.32765 34.6629 4.49811 34.5161 4.62358 34.3267C4.75142 34.1373 4.81534 33.9148 4.81534 33.6591C4.81534 33.3395 4.70407 33.0684 4.48153 32.8459C4.259 32.621 3.90625 32.5085 3.4233 32.5085H1.76136V34.9233ZM9.48686 39.1136C8.99444 39.1136 8.56238 38.9964 8.1907 38.7621C7.82138 38.5277 7.53255 38.1998 7.32422 37.7784C7.11825 37.357 7.01527 36.8646 7.01527 36.3011C7.01527 35.733 7.11825 35.237 7.32422 34.8132C7.53255 34.3894 7.82138 34.0604 8.1907 33.826C8.56238 33.5916 8.99444 33.4744 9.48686 33.4744C9.97929 33.4744 10.4102 33.5916 10.7795 33.826C11.1512 34.0604 11.44 34.3894 11.646 34.8132C11.8543 35.237 11.9585 35.733 11.9585 36.3011C11.9585 36.8646 11.8543 37.357 11.646 37.7784C11.44 38.1998 11.1512 38.5277 10.7795 38.7621C10.4102 38.9964 9.97929 39.1136 9.48686 39.1136ZM9.48686 38.3608C9.86091 38.3608 10.1687 38.2649 10.4102 38.0732C10.6516 37.8814 10.8304 37.6293 10.9464 37.3168C11.0624 37.0043 11.1204 36.6657 11.1204 36.3011C11.1204 35.9366 11.0624 35.5968 10.9464 35.282C10.8304 34.9671 10.6516 34.7126 10.4102 34.5185C10.1687 34.3243 9.86091 34.2273 9.48686 34.2273C9.11281 34.2273 8.80504 34.3243 8.56357 34.5185C8.32209 34.7126 8.14335 34.9671 8.02734 35.282C7.91134 35.5968 7.85334 35.9366 7.85334 36.3011C7.85334 36.6657 7.91134 37.0043 8.02734 37.3168C8.14335 37.6293 8.32209 37.8814 8.56357 38.0732C8.80504 38.2649 9.11281 38.3608 9.48686 38.3608ZM13.2377 39V33.5455H14.0474V34.3693H14.1042C14.2037 34.0994 14.3836 33.8804 14.644 33.7124C14.9044 33.5443 15.198 33.4602 15.5247 33.4602C15.5862 33.4602 15.6632 33.4614 15.7555 33.4638C15.8478 33.4661 15.9177 33.4697 15.965 33.4744V34.3267C15.9366 34.3196 15.8715 34.3089 15.7697 34.2947C15.6703 34.2782 15.5649 34.2699 15.4537 34.2699C15.1885 34.2699 14.9518 34.3255 14.7434 34.4368C14.5375 34.5457 14.3741 34.6972 14.2534 34.8913C14.135 35.0831 14.0758 35.3021 14.0758 35.5483V39H13.2377ZM18.8521 39.1136C18.3975 39.1136 17.9963 38.9988 17.6483 38.7692C17.3002 38.5372 17.028 38.2105 16.8315 37.7891C16.635 37.3653 16.5368 36.8646 16.5368 36.2869C16.5368 35.714 16.635 35.2169 16.8315 34.7955C17.028 34.3741 17.3014 34.0485 17.6518 33.8189C18.0022 33.5893 18.407 33.4744 18.8663 33.4744C19.2214 33.4744 19.502 33.5336 19.7079 33.652C19.9163 33.768 20.0749 33.9006 20.1838 34.0497C20.295 34.1965 20.3815 34.3172 20.443 34.4119H20.514V31.7273H21.3521V39H20.5424V38.1619H20.443C20.3815 38.2614 20.2939 38.3868 20.1802 38.5384C20.0666 38.6875 19.9044 38.8213 19.6937 38.9396C19.483 39.0556 19.2025 39.1136 18.8521 39.1136ZM18.9657 38.3608C19.3019 38.3608 19.586 38.2732 19.818 38.098C20.05 37.9205 20.2264 37.6754 20.3471 37.3629C20.4679 37.0481 20.5282 36.6847 20.5282 36.2727C20.5282 35.8655 20.469 35.5092 20.3507 35.2038C20.2323 34.8961 20.0571 34.657 19.8251 34.4865C19.5931 34.3137 19.3066 34.2273 18.9657 34.2273C18.6106 34.2273 18.3147 34.3184 18.0779 34.5007C17.8436 34.6806 17.6672 34.9257 17.5488 35.2358C17.4328 35.5436 17.3748 35.8892 17.3748 36.2727C17.3748 36.661 17.434 37.0137 17.5524 37.331C17.6731 37.6458 17.8507 37.8968 18.085 38.0838C18.3218 38.2685 18.6154 38.3608 18.9657 38.3608ZM25.2903 39.1136C24.7647 39.1136 24.3114 38.9976 23.9302 38.7656C23.5514 38.5312 23.2591 38.2045 23.0531 37.7855C22.8495 37.3641 22.7477 36.8741 22.7477 36.3153C22.7477 35.7566 22.8495 35.2642 23.0531 34.8381C23.2591 34.4096 23.5455 34.0758 23.9125 33.8366C24.2818 33.5952 24.7127 33.4744 25.2051 33.4744C25.4892 33.4744 25.7697 33.5218 26.0467 33.6165C26.3237 33.7112 26.5758 33.8651 26.8031 34.0781C27.0304 34.2888 27.2115 34.5682 27.3464 34.9162C27.4814 35.2642 27.5488 35.6927 27.5488 36.2017V36.5568H23.3443V35.8324H26.6966C26.6966 35.5246 26.635 35.25 26.5119 35.0085C26.3912 34.767 26.2183 34.5765 25.9934 34.4368C25.7709 34.2971 25.5081 34.2273 25.2051 34.2273C24.8713 34.2273 24.5824 34.3101 24.3386 34.4759C24.0971 34.6392 23.9113 34.8523 23.7811 35.1151C23.6509 35.3778 23.5858 35.6596 23.5858 35.9602V36.4432C23.5858 36.8551 23.6568 37.2043 23.7988 37.4908C23.9432 37.7749 24.1433 37.9915 24.399 38.1406C24.6547 38.2874 24.9518 38.3608 25.2903 38.3608C25.5105 38.3608 25.7093 38.33 25.8869 38.2685C26.0668 38.2045 26.2219 38.1098 26.3521 37.9844C26.4823 37.8565 26.5829 37.6979 26.6539 37.5085L27.4636 37.7358C27.3784 38.0104 27.2351 38.2519 27.0339 38.4602C26.8327 38.6662 26.5841 38.8272 26.2882 38.9432C25.9922 39.0568 25.6596 39.1136 25.2903 39.1136ZM28.8237 39V33.5455H29.6333V34.3693H29.6902C29.7896 34.0994 29.9695 33.8804 30.2299 33.7124C30.4904 33.5443 30.7839 33.4602 31.1106 33.4602C31.1722 33.4602 31.2491 33.4614 31.3414 33.4638C31.4338 33.4661 31.5036 33.4697 31.551 33.4744V34.3267C31.5225 34.3196 31.4574 34.3089 31.3556 34.2947C31.2562 34.2782 31.1509 34.2699 31.0396 34.2699C30.7744 34.2699 30.5377 34.3255 30.3294 34.4368C30.1234 34.5457 29.96 34.6972 29.8393 34.8913C29.7209 35.0831 29.6618 35.3021 29.6618 35.5483V39H28.8237Z" fill="white"/>
<path d="M11 4C11 4.79565 10.6839 5.55871 10.1213 6.12132C9.55871 6.68393 8.79565 7 8 7C7.20435 7 6.44129 6.68393 5.87868 6.12132C5.31607 5.55871 5 4.79565 5 4C5 3.20435 5.31607 2.44129 5.87868 1.87868C6.44129 1.31607 7.20435 1 8 1C8.79565 1 9.55871 1.31607 10.1213 1.87868C10.6839 2.44129 11 3.20435 11 4ZM25 4C25 4.79565 24.6839 5.55871 24.1213 6.12132C23.5587 6.68393 22.7956 7 22 7C21.2044 7 20.4413 6.68393 19.8787 6.12132C19.3161 5.55871 19 4.79565 19 4C19 3.20435 19.3161 2.44129 19.8787 1.87868C20.4413 1.31607 21.2044 1 22 1C22.7956 1 23.5587 1.31607 24.1213 1.87868C24.6839 2.44129 25 3.20435 25 4ZM11 18C11 18.7956 10.6839 19.5587 10.1213 20.1213C9.55871 20.6839 8.79565 21 8 21C7.20435 21 6.44129 20.6839 5.87868 20.1213C5.31607 19.5587 5 18.7956 5 18C5 17.2044 5.31607 16.4413 5.87868 15.8787C6.44129 15.3161 7.20435 15 8 15C8.79565 15 9.55871 15.3161 10.1213 15.8787C10.6839 16.4413 11 17.2044 11 18ZM25 18C25 18.7956 24.6839 19.5587 24.1213 20.1213C23.5587 20.6839 22.7956 21 22 21C21.2044 21 20.4413 20.6839 19.8787 20.1213C19.3161 19.5587 19 18.7956 19 18C19 17.2044 19.3161 16.4413 19.8787 15.8787C20.4413 15.3161 21.2044 15 22 15C22.7956 15 23.5587 15.3161 24.1213 15.8787C24.6839 16.4413 25 17.2044 25 18Z" stroke="#F8F8F8" stroke-width="1.5"/>
<path d="M11 18H19M11 4H19M22 15V7M8 15V7" stroke="#F8F8F8" stroke-width="1.5" stroke-linecap="round"/>
</svg>
