<svg width="24" height="47" viewBox="0 0 24 47" fill="none" xmlns="http://www.w3.org/2000/svg">
<path d="M6.73295 39H5.85227C5.80019 38.7467 5.70904 38.5241 5.57884 38.3324C5.45099 38.1406 5.29474 37.9796 5.11009 37.8494C4.92779 37.7169 4.72538 37.6174 4.50284 37.5511C4.2803 37.4848 4.0483 37.4517 3.80682 37.4517C3.36648 37.4517 2.96757 37.563 2.61009 37.7855C2.25497 38.008 1.97206 38.3359 1.76136 38.7692C1.55303 39.2024 1.44886 39.7339 1.44886 40.3636C1.44886 40.9934 1.55303 41.5249 1.76136 41.9581C1.97206 42.3913 2.25497 42.7192 2.61009 42.9418C2.96757 43.1643 3.36648 43.2756 3.80682 43.2756C4.0483 43.2756 4.2803 43.2424 4.50284 43.1761C4.72538 43.1098 4.92779 43.0116 5.11009 42.8814C5.29474 42.7488 5.45099 42.5866 5.57884 42.3949C5.70904 42.2008 5.80019 41.9782 5.85227 41.7273H6.73295C6.66667 42.099 6.54593 42.4316 6.37074 42.7251C6.19555 43.0187 5.97775 43.2685 5.71733 43.4744C5.45691 43.678 5.16454 43.8331 4.8402 43.9396C4.51823 44.0462 4.17377 44.0994 3.80682 44.0994C3.18655 44.0994 2.63494 43.9479 2.15199 43.6449C1.66903 43.3419 1.28906 42.911 1.01207 42.3523C0.735085 41.7936 0.596591 41.1307 0.596591 40.3636C0.596591 39.5966 0.735085 38.9337 1.01207 38.375C1.28906 37.8163 1.66903 37.3854 2.15199 37.0824C2.63494 36.7794 3.18655 36.6278 3.80682 36.6278C4.17377 36.6278 4.51823 36.6811 4.8402 36.7876C5.16454 36.8942 5.45691 37.0504 5.71733 37.2564C5.97775 37.46 6.19555 37.7086 6.37074 38.0021C6.54593 38.2933 6.66667 38.6259 6.73295 39ZM8.04244 44V38.5455H8.8521V39.3693H8.90891C9.00835 39.0994 9.18827 38.8804 9.44869 38.7124C9.7091 38.5443 10.0027 38.4602 10.3294 38.4602C10.3909 38.4602 10.4679 38.4614 10.5602 38.4638C10.6525 38.4661 10.7224 38.4697 10.7697 38.4744V39.3267C10.7413 39.3196 10.6762 39.3089 10.5744 39.2947C10.475 39.2782 10.3696 39.2699 10.2583 39.2699C9.99319 39.2699 9.75645 39.3255 9.54812 39.4368C9.34215 39.5457 9.1788 39.6972 9.05806 39.8913C8.93969 40.0831 8.8805 40.3021 8.8805 40.5483V44H8.04244ZM13.813 44.1136C13.3206 44.1136 12.8886 43.9964 12.5169 43.7621C12.1475 43.5277 11.8587 43.1998 11.6504 42.7784C11.4444 42.357 11.3414 41.8646 11.3414 41.3011C11.3414 40.733 11.4444 40.237 11.6504 39.8132C11.8587 39.3894 12.1475 39.0604 12.5169 38.826C12.8886 38.5916 13.3206 38.4744 13.813 38.4744C14.3055 38.4744 14.7363 38.5916 15.1056 38.826C15.4773 39.0604 15.7662 39.3894 15.9721 39.8132C16.1805 40.237 16.2846 40.733 16.2846 41.3011C16.2846 41.8646 16.1805 42.357 15.9721 42.7784C15.7662 43.1998 15.4773 43.5277 15.1056 43.7621C14.7363 43.9964 14.3055 44.1136 13.813 44.1136ZM13.813 43.3608C14.1871 43.3608 14.4949 43.2649 14.7363 43.0732C14.9778 42.8814 15.1565 42.6293 15.2725 42.3168C15.3886 42.0043 15.4466 41.6657 15.4466 41.3011C15.4466 40.9366 15.3886 40.5968 15.2725 40.282C15.1565 39.9671 14.9778 39.7126 14.7363 39.5185C14.4949 39.3243 14.1871 39.2273 13.813 39.2273C13.439 39.2273 13.1312 39.3243 12.8897 39.5185C12.6483 39.7126 12.4695 39.9671 12.3535 40.282C12.2375 40.5968 12.1795 40.9366 12.1795 41.3011C12.1795 41.6657 12.2375 42.0043 12.3535 42.3168C12.4695 42.6293 12.6483 42.8814 12.8897 43.0732C13.1312 43.2649 13.439 43.3608 13.813 43.3608ZM17.5639 46.0455V38.5455H18.3736V39.4119H18.473C18.5346 39.3172 18.6198 39.1965 18.7287 39.0497C18.84 38.9006 18.9986 38.768 19.2045 38.652C19.4129 38.5336 19.6946 38.4744 20.0497 38.4744C20.509 38.4744 20.9138 38.5893 21.2642 38.8189C21.6146 39.0485 21.888 39.3741 22.0845 39.7955C22.281 40.2169 22.3793 40.714 22.3793 41.2869C22.3793 41.8646 22.281 42.3653 22.0845 42.7891C21.888 43.2105 21.6158 43.5372 21.2678 43.7692C20.9197 43.9988 20.5185 44.1136 20.0639 44.1136C19.7135 44.1136 19.433 44.0556 19.2223 43.9396C19.0116 43.8213 18.8494 43.6875 18.7358 43.5384C18.6222 43.3868 18.5346 43.2614 18.473 43.1619H18.402V46.0455H17.5639ZM18.3878 41.2727C18.3878 41.6847 18.4482 42.0481 18.5689 42.3629C18.6896 42.6754 18.866 42.9205 19.098 43.098C19.33 43.2732 19.6141 43.3608 19.9503 43.3608C20.3007 43.3608 20.593 43.2685 20.8274 43.0838C21.0642 42.8968 21.2417 42.6458 21.3601 42.331C21.4808 42.0137 21.5412 41.661 21.5412 41.2727C21.5412 40.8892 21.482 40.5436 21.3636 40.2358C21.2476 39.9257 21.0713 39.6806 20.8345 39.5007C20.6001 39.3184 20.3054 39.2273 19.9503 39.2273C19.6094 39.2273 19.3229 39.3137 19.0909 39.4865C18.8589 39.657 18.6837 39.8961 18.5653 40.2038C18.447 40.5092 18.3878 40.8655 18.3878 41.2727Z" fill="white"/>
<path d="M17.8889 2.5046H17.1678L17.5344 2.14218C17.6484 2.02565 17.7388 1.88732 17.8005 1.73507C17.8621 1.58282 17.8939 1.41965 17.8939 1.25486C17.8939 1.09007 17.8621 0.926891 17.8005 0.774645C17.7388 0.622398 17.6484 0.484064 17.5344 0.367539C17.4205 0.251015 17.2852 0.158583 17.1363 0.0955203C16.9874 0.0324578 16.8278 0 16.6667 0C16.3412 0 16.029 0.132208 15.7989 0.367539L13.3544 2.86703C13.2399 2.98321 13.149 3.12143 13.0869 3.27372C13.0249 3.42602 12.9929 3.58937 12.9929 3.75435C12.9929 3.91933 13.0249 4.08268 13.0869 4.23497C13.149 4.38726 13.2399 4.52549 13.3544 4.64167L15.7989 7.14115C15.9125 7.25829 16.0477 7.35126 16.1966 7.41471C16.3456 7.47816 16.5053 7.51083 16.6667 7.51083C16.828 7.51083 16.9878 7.47816 17.1367 7.41471C17.2856 7.35126 17.4208 7.25829 17.5344 7.14115C17.649 7.02497 17.7399 6.88675 17.802 6.73446C17.864 6.58216 17.896 6.41882 17.896 6.25384C17.896 6.08885 17.864 5.92551 17.802 5.77321C17.7399 5.62092 17.649 5.4827 17.5344 5.36652L17.1678 5.00409H17.8889C18.8613 5.00409 19.794 5.3991 20.4816 6.10222C21.1692 6.80533 21.5556 7.75897 21.5556 8.75332V11.2528C21.5556 11.5843 21.6843 11.9021 21.9135 12.1365C22.1427 12.3709 22.4536 12.5026 22.7778 12.5026C23.1019 12.5026 23.4128 12.3709 23.642 12.1365C23.8712 11.9021 24 11.5843 24 11.2528V8.75332C24 7.09606 23.3562 5.50667 22.2101 4.33481C21.064 3.16295 19.5097 2.5046 17.8889 2.5046ZM17.8889 20.001H16.6667V11.2528C16.6667 10.9214 16.5379 10.6035 16.3087 10.3691C16.0795 10.1347 15.7686 10.0031 15.4444 10.0031H6.88889V8.75332C6.88889 8.42187 6.76012 8.10399 6.53091 7.86962C6.3017 7.63525 5.99082 7.50358 5.66667 7.50358C5.34251 7.50358 5.03164 7.63525 4.80243 7.86962C4.57321 8.10399 4.44444 8.42187 4.44444 8.75332V10.0031H3.22222C2.89807 10.0031 2.58719 10.1347 2.35798 10.3691C2.12877 10.6035 2 10.9214 2 11.2528C2 11.5843 2.12877 11.9021 2.35798 12.1365C2.58719 12.3709 2.89807 12.5026 3.22222 12.5026H4.44444V21.2508C4.44444 21.5822 4.57321 21.9001 4.80243 22.1345C5.03164 22.3688 5.34251 22.5005 5.66667 22.5005H14.2222V23.7503C14.2222 24.0817 14.351 24.3996 14.5802 24.634C14.8094 24.8683 15.1203 25 15.4444 25C15.7686 25 16.0795 24.8683 16.3087 24.634C16.5379 24.3996 16.6667 24.0817 16.6667 23.7503V22.5005H17.8889C18.213 22.5005 18.5239 22.3688 18.7531 22.1345C18.9823 21.9001 19.1111 21.5822 19.1111 21.2508C19.1111 20.9193 18.9823 20.6014 18.7531 20.3671C18.5239 20.1327 18.213 20.001 17.8889 20.001ZM14.2222 20.001H6.88889V12.5026H14.2222V20.001Z" fill="#F8F8F8"/>
</svg>
