<svg width="24" height="22" viewBox="0 0 24 22" fill="none" xmlns="http://www.w3.org/2000/svg">
<g filter="url(#filter0_d_109_3)">
<path fill-rule="evenodd" clip-rule="evenodd" d="M12 0.25C11.4506 0.25 10.9137 0.414585 10.4587 0.722534C10.0037 1.03048 9.6513 1.46768 9.44706 1.97775C9.24282 2.48782 9.19605 3.04737 9.31279 3.58427C9.42952 4.12117 9.70441 4.61079 10.102 4.99L9.902 5.346L8.105 8.569C7.99015 8.78545 7.8657 8.99666 7.732 9.202C7.71351 9.22881 7.69348 9.25452 7.672 9.279C7.64424 9.26123 7.61753 9.24186 7.592 9.221C7.4069 9.05999 7.22906 8.89083 7.059 8.714L6.979 8.635C6.69548 8.34638 6.40472 8.06496 6.107 7.791C6.2641 7.37227 6.29284 6.91623 6.18957 6.48109C6.0863 6.04595 5.8557 5.65146 5.5272 5.34798C5.1987 5.0445 4.78722 4.8458 4.34528 4.77724C3.90334 4.70869 3.45099 4.77339 3.04599 4.96309C2.64099 5.1528 2.30171 5.45889 2.07147 5.84229C1.84123 6.2257 1.73046 6.66902 1.75332 7.11566C1.77618 7.5623 1.93163 7.992 2.19981 8.34989C2.468 8.70778 2.83675 8.97764 3.259 9.125L3.269 9.298C3.293 9.623 3.335 10.012 3.382 10.456L3.567 12.173L3.654 13.003C3.766 14.086 3.874 15.121 4.034 15.994C4.134 16.546 4.262 17.066 4.438 17.517C4.613 17.965 4.855 18.392 5.212 18.712C5.842 19.276 6.602 19.522 7.508 19.638C8.383 19.75 9.486 19.75 10.86 19.75H13.14C14.514 19.75 15.617 19.75 16.492 19.638C17.399 19.522 18.158 19.276 18.788 18.712C19.145 18.392 19.387 17.965 19.562 17.517C19.738 17.066 19.866 16.546 19.967 15.994C20.127 15.121 20.234 14.086 20.346 13.004L20.433 12.174L20.618 10.457C20.665 10.012 20.708 9.623 20.73 9.298L20.741 9.125C21.1633 8.97764 21.532 8.70778 21.8002 8.34989C22.0684 7.992 22.2238 7.5623 22.2467 7.11566C22.2695 6.66902 22.1588 6.2257 21.9285 5.84229C21.6983 5.45889 21.359 5.1528 20.954 4.96309C20.549 4.77339 20.0967 4.70869 19.6547 4.77724C19.2128 4.8458 18.8013 5.0445 18.4728 5.34798C18.1443 5.65146 17.9137 6.04595 17.8104 6.48109C17.7072 6.91623 17.7359 7.37227 17.893 7.791C17.629 8.028 17.339 8.317 17.02 8.635L16.941 8.714C16.683 8.972 16.529 9.124 16.408 9.221C16.3825 9.24186 16.3558 9.26123 16.328 9.279C16.3065 9.2545 16.2865 9.22879 16.268 9.202C16.1343 8.99666 16.0098 8.78545 15.895 8.569L14.098 5.346L13.898 4.99C14.2956 4.61079 14.5705 4.12117 14.6872 3.58427C14.804 3.04737 14.7572 2.48782 14.5529 1.97775C14.3487 1.46768 13.9963 1.03048 13.5413 0.722534C13.0863 0.414585 12.5494 0.25 12 0.25ZM10.75 3C10.75 2.66848 10.8817 2.35054 11.1161 2.11612C11.3505 1.8817 11.6685 1.75 12 1.75C12.3315 1.75 12.6495 1.8817 12.8839 2.11612C13.1183 2.35054 13.25 2.66848 13.25 3C13.25 3.33152 13.1183 3.64946 12.8839 3.88388C12.6495 4.1183 12.3315 4.25 12 4.25C11.6685 4.25 11.3505 4.1183 11.1161 3.88388C10.8817 3.64946 10.75 3.33152 10.75 3ZM11.205 6.09C11.285 5.945 11.36 5.812 11.429 5.69C11.8055 5.76973 12.1945 5.76973 12.571 5.69C12.641 5.812 12.714 5.945 12.795 6.09L14.602 9.33C14.757 9.608 14.9 9.865 15.04 10.064C15.189 10.275 15.391 10.509 15.702 10.646C15.97 10.764 16.266 10.805 16.556 10.765C16.892 10.718 17.151 10.549 17.352 10.387C17.54 10.234 17.749 10.026 17.976 9.801L18 9.777C18.375 9.403 18.65 9.132 18.86 8.94C18.98 9.01 19.106 9.07 19.239 9.118L19.234 9.192C19.214 9.486 19.174 9.849 19.124 10.308L18.942 12.013L18.85 12.883C18.78 13.553 18.716 14.178 18.641 14.75H5.359C5.28085 14.1283 5.21084 13.5056 5.149 12.882C5.121 12.6 5.09 12.31 5.059 12.012L4.875 10.308C4.82992 9.91204 4.79192 9.51531 4.761 9.118C4.894 9.07 5.021 9.01 5.141 8.94C5.351 9.132 5.625 9.403 6.001 9.777L6.024 9.801C6.251 10.026 6.46 10.234 6.648 10.387C6.849 10.549 7.108 10.718 7.444 10.765C7.734 10.805 8.03 10.764 8.298 10.645C8.608 10.509 8.812 10.275 8.96 10.064C9.11802 9.82637 9.2642 9.58107 9.398 9.329L11.205 6.09ZM5.618 16.25C5.683 16.526 5.755 16.766 5.835 16.97C5.965 17.3 6.096 17.49 6.212 17.594C6.529 17.877 6.951 18.054 7.699 18.15C8.467 18.249 9.474 18.25 10.912 18.25H13.088C14.526 18.25 15.533 18.249 16.301 18.15C17.049 18.055 17.471 17.877 17.788 17.594C17.904 17.49 18.036 17.3 18.165 16.971C18.245 16.766 18.317 16.526 18.382 16.25H5.618ZM3.25 7C3.25001 6.85205 3.29378 6.70741 3.3758 6.58427C3.45782 6.46114 3.57443 6.36501 3.71095 6.30799C3.84747 6.25097 3.99781 6.2356 4.14304 6.26382C4.28828 6.29204 4.42192 6.36258 4.52716 6.46657C4.6324 6.57056 4.70453 6.70335 4.73448 6.84824C4.76443 6.99313 4.75085 7.14364 4.69546 7.28083C4.64007 7.41802 4.54535 7.53577 4.4232 7.61925C4.30105 7.70273 4.15694 7.74822 4.009 7.75H4C3.80109 7.75 3.61032 7.67098 3.46967 7.53033C3.32902 7.38968 3.25 7.19891 3.25 7ZM19.25 7C19.25 6.85166 19.294 6.70666 19.3764 6.58332C19.4588 6.45999 19.5759 6.36386 19.713 6.30709C19.85 6.25033 20.0008 6.23547 20.1463 6.26441C20.2918 6.29335 20.4254 6.36478 20.5303 6.46967C20.6352 6.57456 20.7067 6.7082 20.7356 6.85368C20.7645 6.99917 20.7497 7.14997 20.6929 7.28701C20.6361 7.42406 20.54 7.54119 20.4167 7.6236C20.2933 7.70601 20.1483 7.75 20 7.75H19.991C19.7934 7.74841 19.6045 7.6686 19.4656 7.52804C19.3267 7.38747 19.2492 7.1976 19.25 7Z" fill="black"/>
</g>
<defs>
<filter id="filter0_d_109_3" x="-2.24962" y="0.25" width="28.4992" height="27.5" filterUnits="userSpaceOnUse" color-interpolation-filters="sRGB">
<feFlood flood-opacity="0" result="BackgroundImageFix"/>
<feColorMatrix in="SourceAlpha" type="matrix" values="0 0 0 0 0 0 0 0 0 0 0 0 0 0 0 0 0 0 127 0" result="hardAlpha"/>
<feOffset dy="4"/>
<feGaussianBlur stdDeviation="2"/>
<feComposite in2="hardAlpha" operator="out"/>
<feColorMatrix type="matrix" values="0 0 0 0 0 0 0 0 0 0 0 0 0 0 0 0 0 0 0.25 0"/>
<feBlend mode="normal" in2="BackgroundImageFix" result="effect1_dropShadow_109_3"/>
<feBlend mode="normal" in="SourceGraphic" in2="effect1_dropShadow_109_3" result="shape"/>
</filter>
</defs>
</svg>
