<svg width="33" height="39" viewBox="0 0 33 39" fill="none" xmlns="http://www.w3.org/2000/svg">
<path d="M6.73295 32H5.85227C5.80019 31.7467 5.70904 31.5241 5.57884 31.3324C5.45099 31.1406 5.29474 30.9796 5.11009 30.8494C4.92779 30.7169 4.72538 30.6174 4.50284 30.5511C4.2803 30.4848 4.0483 30.4517 3.80682 30.4517C3.36648 30.4517 2.96757 30.563 2.61009 30.7855C2.25497 31.008 1.97206 31.3359 1.76136 31.7692C1.55303 32.2024 1.44886 32.7339 1.44886 33.3636C1.44886 33.9934 1.55303 34.5249 1.76136 34.9581C1.97206 35.3913 2.25497 35.7192 2.61009 35.9418C2.96757 36.1643 3.36648 36.2756 3.80682 36.2756C4.0483 36.2756 4.2803 36.2424 4.50284 36.1761C4.72538 36.1098 4.92779 36.0116 5.11009 35.8814C5.29474 35.7488 5.45099 35.5866 5.57884 35.3949C5.70904 35.2008 5.80019 34.9782 5.85227 34.7273H6.73295C6.66667 35.099 6.54593 35.4316 6.37074 35.7251C6.19555 36.0187 5.97775 36.2685 5.71733 36.4744C5.45691 36.678 5.16454 36.8331 4.8402 36.9396C4.51823 37.0462 4.17377 37.0994 3.80682 37.0994C3.18655 37.0994 2.63494 36.9479 2.15199 36.6449C1.66903 36.3419 1.28906 35.911 1.01207 35.3523C0.735085 34.7936 0.596591 34.1307 0.596591 33.3636C0.596591 32.5966 0.735085 31.9337 1.01207 31.375C1.28906 30.8163 1.66903 30.3854 2.15199 30.0824C2.63494 29.7794 3.18655 29.6278 3.80682 29.6278C4.17377 29.6278 4.51823 29.6811 4.8402 29.7876C5.16454 29.8942 5.45691 30.0504 5.71733 30.2564C5.97775 30.46 6.19555 30.7086 6.37074 31.0021C6.54593 31.2933 6.66667 31.6259 6.73295 32ZM11.4799 34.7699V31.5455H12.318V37H11.4799V36.0767H11.4231C11.2953 36.3537 11.0964 36.5893 10.8265 36.7834C10.5566 36.9751 10.2157 37.071 9.8038 37.071C9.46289 37.071 9.15986 36.9964 8.89471 36.8473C8.62956 36.6958 8.42122 36.4685 8.26971 36.1655C8.11819 35.8601 8.04244 35.4754 8.04244 35.0114V31.5455H8.8805V34.9545C8.8805 35.3523 8.99177 35.6695 9.21431 35.9062C9.43922 36.143 9.72567 36.2614 10.0737 36.2614C10.282 36.2614 10.4939 36.2081 10.7093 36.1016C10.9271 35.995 11.1094 35.8317 11.2562 35.6115C11.4054 35.3913 11.4799 35.1108 11.4799 34.7699ZM16.2251 31.5455V32.2557H13.3984V31.5455H16.2251ZM14.2223 30.2386H15.0604V35.4375C15.0604 35.6742 15.0947 35.8518 15.1634 35.9702C15.2344 36.0862 15.3243 36.1643 15.4332 36.2045C15.5445 36.2424 15.6617 36.2614 15.7848 36.2614C15.8771 36.2614 15.9529 36.2566 16.0121 36.2472C16.0713 36.2353 16.1186 36.2259 16.1541 36.2188L16.3246 36.9716C16.2678 36.9929 16.1884 37.0142 16.0866 37.0355C15.9848 37.0592 15.8558 37.071 15.6996 37.071C15.4628 37.071 15.2308 37.0201 15.0036 36.9183C14.7786 36.8165 14.5916 36.6615 14.4425 36.4531C14.2957 36.2448 14.2223 35.982 14.2223 35.6648V30.2386ZM19.6431 37.1136C19.1507 37.1136 18.7186 36.9964 18.3469 36.7621C17.9776 36.5277 17.6888 36.1998 17.4805 35.7784C17.2745 35.357 17.1715 34.8646 17.1715 34.3011C17.1715 33.733 17.2745 33.237 17.4805 32.8132C17.6888 32.3894 17.9776 32.0604 18.3469 31.826C18.7186 31.5916 19.1507 31.4744 19.6431 31.4744C20.1355 31.4744 20.5664 31.5916 20.9357 31.826C21.3074 32.0604 21.5962 32.3894 21.8022 32.8132C22.0105 33.237 22.1147 33.733 22.1147 34.3011C22.1147 34.8646 22.0105 35.357 21.8022 35.7784C21.5962 36.1998 21.3074 36.5277 20.9357 36.7621C20.5664 36.9964 20.1355 37.1136 19.6431 37.1136ZM19.6431 36.3608C20.0172 36.3608 20.3249 36.2649 20.5664 36.0732C20.8079 35.8814 20.9866 35.6293 21.1026 35.3168C21.2186 35.0043 21.2766 34.6657 21.2766 34.3011C21.2766 33.9366 21.2186 33.5968 21.1026 33.282C20.9866 32.9671 20.8079 32.7126 20.5664 32.5185C20.3249 32.3243 20.0172 32.2273 19.6431 32.2273C19.2691 32.2273 18.9613 32.3243 18.7198 32.5185C18.4783 32.7126 18.2996 32.9671 18.1836 33.282C18.0676 33.5968 18.0096 33.9366 18.0096 34.3011C18.0096 34.6657 18.0676 35.0043 18.1836 35.3168C18.2996 35.6293 18.4783 35.8814 18.7198 36.0732C18.9613 36.2649 19.2691 36.3608 19.6431 36.3608ZM26.8315 34.7699V31.5455H27.6696V37H26.8315V36.0767H26.7747C26.6468 36.3537 26.448 36.5893 26.1781 36.7834C25.9082 36.9751 25.5673 37.071 25.1554 37.071C24.8145 37.071 24.5114 36.9964 24.2463 36.8473C23.9811 36.6958 23.7728 36.4685 23.6213 36.1655C23.4698 35.8601 23.394 35.4754 23.394 35.0114V31.5455H24.2321V34.9545C24.2321 35.3523 24.3433 35.6695 24.5659 35.9062C24.7908 36.143 25.0772 36.2614 25.4252 36.2614C25.6336 36.2614 25.8455 36.2081 26.0609 36.1016C26.2787 35.995 26.461 35.8317 26.6078 35.6115C26.7569 35.3913 26.8315 35.1108 26.8315 34.7699ZM31.5767 31.5455V32.2557H28.75V31.5455H31.5767ZM29.5739 30.2386H30.4119V35.4375C30.4119 35.6742 30.4463 35.8518 30.5149 35.9702C30.5859 36.0862 30.6759 36.1643 30.7848 36.2045C30.8961 36.2424 31.0133 36.2614 31.1364 36.2614C31.2287 36.2614 31.3045 36.2566 31.3636 36.2472C31.4228 36.2353 31.4702 36.2259 31.5057 36.2188L31.6761 36.9716C31.6193 36.9929 31.54 37.0142 31.4382 37.0355C31.3364 37.0592 31.2074 37.071 31.0511 37.071C30.8144 37.071 30.5824 37.0201 30.3551 36.9183C30.1302 36.8165 29.9432 36.6615 29.794 36.4531C29.6473 36.2448 29.5739 35.982 29.5739 35.6648V30.2386Z" fill="white"/>
<path d="M24.375 19C24.375 19 26 19 26 17.4167C26 15.8333 24.375 11.0833 17.875 11.0833C11.375 11.0833 9.75 15.8333 9.75 17.4167C9.75 19 11.375 19 11.375 19H24.375ZM11.4107 17.4167L11.375 17.4103C11.3766 16.9923 11.6464 15.7795 12.61 14.687C13.507 13.6626 15.0832 12.6667 17.875 12.6667C20.6651 12.6667 22.2414 13.6642 23.14 14.687C24.1036 15.7795 24.3717 16.9939 24.375 17.4103L24.362 17.4135L24.3392 17.4167H11.4107ZM17.875 7.91667C18.737 7.91667 19.5636 7.58304 20.1731 6.98917C20.7826 6.39531 21.125 5.58985 21.125 4.75C21.125 3.91015 20.7826 3.10469 20.1731 2.51083C19.5636 1.91696 18.737 1.58333 17.875 1.58333C17.013 1.58333 16.1864 1.91696 15.5769 2.51083C14.9674 3.10469 14.625 3.91015 14.625 4.75C14.625 5.58985 14.9674 6.39531 15.5769 6.98917C16.1864 7.58304 17.013 7.91667 17.875 7.91667ZM22.75 4.75C22.75 5.37378 22.6239 5.99145 22.3789 6.56775C22.1339 7.14404 21.7748 7.66768 21.3221 8.10876C20.8695 8.54984 20.332 8.89972 19.7406 9.13843C19.1491 9.37714 18.5152 9.5 17.875 9.5C17.2348 9.5 16.6009 9.37714 16.0094 9.13843C15.418 8.89972 14.8805 8.54984 14.4279 8.10876C13.9752 7.66768 13.6161 7.14404 13.3711 6.56775C13.1261 5.99145 13 5.37378 13 4.75C13 3.49022 13.5136 2.28204 14.4279 1.39124C15.3421 0.500445 16.5821 0 17.875 0C19.1679 0 20.4079 0.500445 21.3221 1.39124C22.2364 2.28204 22.75 3.49022 22.75 4.75ZM11.271 11.5267C10.6206 11.3286 9.9507 11.1975 9.27225 11.1356C8.89098 11.0994 8.50808 11.0819 8.125 11.0833C1.625 11.0833 0 15.8333 0 17.4167C0 18.4722 0.541667 19 1.625 19H8.476C8.23521 18.5057 8.11508 17.9638 8.125 17.4167C8.125 15.8175 8.73763 14.1835 9.89625 12.8187C10.2911 12.3532 10.751 11.9177 11.271 11.5267ZM7.995 12.6667C7.03385 14.075 6.51437 15.7255 6.5 17.4167H1.625C1.625 17.005 1.8915 15.7858 2.86 14.687C3.74563 13.68 5.2845 12.6983 7.995 12.6683V12.6667ZM2.4375 5.54167C2.4375 4.28189 2.95111 3.07371 3.86535 2.18291C4.77959 1.29211 6.01957 0.791667 7.3125 0.791667C8.60543 0.791667 9.84541 1.29211 10.7596 2.18291C11.6739 3.07371 12.1875 4.28189 12.1875 5.54167C12.1875 6.80145 11.6739 8.00963 10.7596 8.90042C9.84541 9.79122 8.60543 10.2917 7.3125 10.2917C6.01957 10.2917 4.77959 9.79122 3.86535 8.90042C2.95111 8.00963 2.4375 6.80145 2.4375 5.54167ZM7.3125 2.375C6.45055 2.375 5.6239 2.70863 5.0144 3.3025C4.40491 3.89636 4.0625 4.70181 4.0625 5.54167C4.0625 6.38152 4.40491 7.18697 5.0144 7.78084C5.6239 8.3747 6.45055 8.70833 7.3125 8.70833C8.17445 8.70833 9.0011 8.3747 9.6106 7.78084C10.2201 7.18697 10.5625 6.38152 10.5625 5.54167C10.5625 4.70181 10.2201 3.89636 9.6106 3.3025C9.0011 2.70863 8.17445 2.375 7.3125 2.375Z" fill="#F8F8F8"/>
</svg>
