<svg width="31" height="41" viewBox="0 0 31 41" fill="none" xmlns="http://www.w3.org/2000/svg">
<path d="M3.125 39H0.880682V31.7273H3.22443C3.92992 31.7273 4.53362 31.8729 5.03551 32.1641C5.53741 32.4529 5.92211 32.8684 6.18963 33.4105C6.45715 33.9503 6.59091 34.5966 6.59091 35.3494C6.59091 36.107 6.45597 36.7592 6.18608 37.3061C5.91619 37.8506 5.5232 38.2696 5.0071 38.5632C4.491 38.8544 3.86364 39 3.125 39ZM1.76136 38.2188H3.06818C3.66951 38.2188 4.16785 38.1027 4.56321 37.8707C4.95857 37.6387 5.25331 37.3085 5.44744 36.88C5.64157 36.4515 5.73864 35.9413 5.73864 35.3494C5.73864 34.7623 5.64276 34.2569 5.45099 33.8331C5.25923 33.407 4.97277 33.0803 4.59162 32.853C4.21046 32.6233 3.7358 32.5085 3.16761 32.5085H1.76136V38.2188ZM10.2415 39.1136C9.71591 39.1136 9.26255 38.9976 8.88139 38.7656C8.5026 38.5312 8.21023 38.2045 8.00426 37.7855C7.80066 37.3641 7.69886 36.8741 7.69886 36.3153C7.69886 35.7566 7.80066 35.2642 8.00426 34.8381C8.21023 34.4096 8.49669 34.0758 8.86364 33.8366C9.23295 33.5952 9.66383 33.4744 10.1562 33.4744C10.4403 33.4744 10.7209 33.5218 10.9979 33.6165C11.2749 33.7112 11.527 33.8651 11.7543 34.0781C11.9815 34.2888 12.1626 34.5682 12.2976 34.9162C12.4325 35.2642 12.5 35.6927 12.5 36.2017V36.5568H8.29545V35.8324H11.6477C11.6477 35.5246 11.5862 35.25 11.4631 35.0085C11.3423 34.767 11.1695 34.5765 10.9446 34.4368C10.7221 34.2971 10.4593 34.2273 10.1562 34.2273C9.82244 34.2273 9.53362 34.3101 9.28977 34.4759C9.0483 34.6392 8.86245 34.8523 8.73224 35.1151C8.60204 35.3778 8.53693 35.6596 8.53693 35.9602V36.4432C8.53693 36.8551 8.60795 37.2043 8.75 37.4908C8.89441 37.7749 9.09446 37.9915 9.35014 38.1406C9.60582 38.2874 9.90294 38.3608 10.2415 38.3608C10.4616 38.3608 10.6605 38.33 10.8381 38.2685C11.018 38.2045 11.1731 38.1098 11.3033 37.9844C11.4335 37.8565 11.5341 37.6979 11.6051 37.5085L12.4148 37.7358C12.3295 38.0104 12.1863 38.2519 11.9851 38.4602C11.7839 38.6662 11.5353 38.8272 11.2393 38.9432C10.9434 39.0568 10.6108 39.1136 10.2415 39.1136ZM14.6129 31.7273V39H13.7749V31.7273H14.6129ZM18.4348 39.1136C17.9093 39.1136 17.4559 38.9976 17.0748 38.7656C16.696 38.5312 16.4036 38.2045 16.1976 37.7855C15.994 37.3641 15.8922 36.8741 15.8922 36.3153C15.8922 35.7566 15.994 35.2642 16.1976 34.8381C16.4036 34.4096 16.69 34.0758 17.057 33.8366C17.4263 33.5952 17.8572 33.4744 18.3496 33.4744C18.6337 33.4744 18.9142 33.5218 19.1912 33.6165C19.4682 33.7112 19.7203 33.8651 19.9476 34.0781C20.1749 34.2888 20.356 34.5682 20.4909 34.9162C20.6259 35.2642 20.6934 35.6927 20.6934 36.2017V36.5568H16.4888V35.8324H19.8411C19.8411 35.5246 19.7795 35.25 19.6564 35.0085C19.5357 34.767 19.3629 34.5765 19.138 34.4368C18.9154 34.2971 18.6526 34.2273 18.3496 34.2273C18.0158 34.2273 17.727 34.3101 17.4831 34.4759C17.2417 34.6392 17.0558 34.8523 16.9256 35.1151C16.7954 35.3778 16.7303 35.6596 16.7303 35.9602V36.4432C16.7303 36.8551 16.8013 37.2043 16.9434 37.4908C17.0878 37.7749 17.2878 37.9915 17.5435 38.1406C17.7992 38.2874 18.0963 38.3608 18.4348 38.3608C18.655 38.3608 18.8539 38.33 19.0314 38.2685C19.2114 38.2045 19.3664 38.1098 19.4966 37.9844C19.6268 37.8565 19.7275 37.6979 19.7985 37.5085L20.6081 37.7358C20.5229 38.0104 20.3797 38.2519 20.1784 38.4602C19.9772 38.6662 19.7286 38.8272 19.4327 38.9432C19.1368 39.0568 18.8042 39.1136 18.4348 39.1136ZM24.3404 33.5455V34.2557H21.5137V33.5455H24.3404ZM22.3375 32.2386H23.1756V37.4375C23.1756 37.6742 23.2099 37.8518 23.2786 37.9702C23.3496 38.0862 23.4396 38.1643 23.5485 38.2045C23.6597 38.2424 23.7769 38.2614 23.9 38.2614C23.9924 38.2614 24.0681 38.2566 24.1273 38.2472C24.1865 38.2353 24.2338 38.2259 24.2694 38.2188L24.4398 38.9716C24.383 38.9929 24.3037 39.0142 24.2019 39.0355C24.1001 39.0592 23.9711 39.071 23.8148 39.071C23.5781 39.071 23.3461 39.0201 23.1188 38.9183C22.8939 38.8165 22.7069 38.6615 22.5577 38.4531C22.4109 38.2448 22.3375 37.982 22.3375 37.6648V32.2386ZM27.8294 39.1136C27.3038 39.1136 26.8504 38.9976 26.4693 38.7656C26.0905 38.5312 25.7981 38.2045 25.5922 37.7855C25.3886 37.3641 25.2868 36.8741 25.2868 36.3153C25.2868 35.7566 25.3886 35.2642 25.5922 34.8381C25.7981 34.4096 26.0846 34.0758 26.4515 33.8366C26.8208 33.5952 27.2517 33.4744 27.7441 33.4744C28.0282 33.4744 28.3088 33.5218 28.5858 33.6165C28.8627 33.7112 29.1149 33.8651 29.3422 34.0781C29.5694 34.2888 29.7505 34.5682 29.8855 34.9162C30.0204 35.2642 30.0879 35.6927 30.0879 36.2017V36.5568H25.8833V35.8324H29.2356C29.2356 35.5246 29.1741 35.25 29.051 35.0085C28.9302 34.767 28.7574 34.5765 28.5325 34.4368C28.31 34.2971 28.0472 34.2273 27.7441 34.2273C27.4103 34.2273 27.1215 34.3101 26.8777 34.4759C26.6362 34.6392 26.4503 34.8523 26.3201 35.1151C26.1899 35.3778 26.1248 35.6596 26.1248 35.9602V36.4432C26.1248 36.8551 26.1958 37.2043 26.3379 37.4908C26.4823 37.7749 26.6824 37.9915 26.938 38.1406C27.1937 38.2874 27.4908 38.3608 27.8294 38.3608C28.0495 38.3608 28.2484 38.33 28.426 38.2685C28.6059 38.2045 28.7609 38.1098 28.8912 37.9844C29.0214 37.8565 29.122 37.6979 29.193 37.5085L30.0027 37.7358C29.9174 38.0104 29.7742 38.2519 29.573 38.4602C29.3717 38.6662 29.1232 38.8272 28.8272 38.9432C28.5313 39.0568 28.1987 39.1136 27.8294 39.1136Z" fill="white"/>
<path d="M21.8667 17.6842C21.8667 18.5636 21.5085 19.407 20.8708 20.0288C20.2332 20.6507 19.3684 21 18.4667 21H10.5333C9.6316 21 8.76679 20.6507 8.12917 20.0288C7.49155 19.407 7.13333 18.5636 7.13333 17.6842V4.42105H6V1.10526H11.1L12.2333 0H16.7667L17.9 1.10526H23V4.42105H21.8667V17.6842ZM8.26667 4.42105V17.6842C8.26667 18.2705 8.50548 18.8327 8.93056 19.2473C9.35564 19.6618 9.93218 19.8947 10.5333 19.8947H18.4667C19.0678 19.8947 19.6444 19.6618 20.0694 19.2473C20.4945 18.8327 20.7333 18.2705 20.7333 17.6842V4.42105H8.26667ZM21.8667 3.31579V2.21053H17.3333L16.2 1.10526H12.8L11.6667 2.21053H7.13333V3.31579H21.8667ZM10.5333 6.63158H11.6667V17.6842H10.5333V6.63158ZM17.3333 6.63158H18.4667V17.6842H17.3333V6.63158Z" fill="#F8F8F8"/>
</svg>
