<svg width="29" height="41" viewBox="0 0 29 41" fill="none" xmlns="http://www.w3.org/2000/svg">
<path d="M0.880682 39V31.7273H5.24148V32.5085H1.76136V34.9659H4.91477V35.7472H1.76136V39H0.880682ZM6.63619 39V33.5455H7.47425V39H6.63619ZM7.06232 32.6364C6.89897 32.6364 6.75811 32.5807 6.63974 32.4695C6.52373 32.3582 6.46573 32.2244 6.46573 32.0682C6.46573 31.9119 6.52373 31.7782 6.63974 31.6669C6.75811 31.5556 6.89897 31.5 7.06232 31.5C7.22567 31.5 7.36535 31.5556 7.48136 31.6669C7.59973 31.7782 7.65891 31.9119 7.65891 32.0682C7.65891 32.2244 7.59973 32.3582 7.48136 32.4695C7.36535 32.5807 7.22567 32.6364 7.06232 32.6364ZM9.8473 31.7273V39H9.00923V31.7273H9.8473ZM13.7544 33.5455V34.2557H10.9277V33.5455H13.7544ZM11.7516 32.2386H12.5897V37.4375C12.5897 37.6742 12.624 37.8518 12.6926 37.9702C12.7637 38.0862 12.8536 38.1643 12.9625 38.2045C13.0738 38.2424 13.191 38.2614 13.3141 38.2614C13.4064 38.2614 13.4822 38.2566 13.5414 38.2472C13.6006 38.2353 13.6479 38.2259 13.6834 38.2188L13.8539 38.9716C13.7971 38.9929 13.7177 39.0142 13.6159 39.0355C13.5141 39.0592 13.3851 39.071 13.2289 39.071C12.9921 39.071 12.7601 39.0201 12.5328 38.9183C12.3079 38.8165 12.1209 38.6615 11.9718 38.4531C11.825 38.2448 11.7516 37.982 11.7516 37.6648V32.2386ZM17.2434 39.1136C16.7179 39.1136 16.2645 38.9976 15.8833 38.7656C15.5046 38.5312 15.2122 38.2045 15.0062 37.7855C14.8026 37.3641 14.7008 36.8741 14.7008 36.3153C14.7008 35.7566 14.8026 35.2642 15.0062 34.8381C15.2122 34.4096 15.4986 34.0758 15.8656 33.8366C16.2349 33.5952 16.6658 33.4744 17.1582 33.4744C17.4423 33.4744 17.7228 33.5218 17.9998 33.6165C18.2768 33.7112 18.5289 33.8651 18.7562 34.0781C18.9835 34.2888 19.1646 34.5682 19.2995 34.9162C19.4345 35.2642 19.502 35.6927 19.502 36.2017V36.5568H15.2974V35.8324H18.6497C18.6497 35.5246 18.5881 35.25 18.465 35.0085C18.3443 34.767 18.1715 34.5765 17.9466 34.4368C17.724 34.2971 17.4612 34.2273 17.1582 34.2273C16.8244 34.2273 16.5356 34.3101 16.2917 34.4759C16.0502 34.6392 15.8644 34.8523 15.7342 35.1151C15.604 35.3778 15.5389 35.6596 15.5389 35.9602V36.4432C15.5389 36.8551 15.6099 37.2043 15.752 37.4908C15.8964 37.7749 16.0964 37.9915 16.3521 38.1406C16.6078 38.2874 16.9049 38.3608 17.2434 38.3608C17.4636 38.3608 17.6625 38.33 17.84 38.2685C18.0199 38.2045 18.175 38.1098 18.3052 37.9844C18.4354 37.8565 18.536 37.6979 18.6071 37.5085L19.4167 37.7358C19.3315 38.0104 19.1883 38.2519 18.987 38.4602C18.7858 38.6662 18.5372 38.8272 18.2413 38.9432C17.9454 39.0568 17.6127 39.1136 17.2434 39.1136ZM20.7768 39V33.5455H21.5865V34.3693H21.6433C21.7427 34.0994 21.9226 33.8804 22.1831 33.7124C22.4435 33.5443 22.737 33.4602 23.0637 33.4602C23.1253 33.4602 23.2022 33.4614 23.2946 33.4638C23.3869 33.4661 23.4567 33.4697 23.5041 33.4744V34.3267C23.4757 34.3196 23.4106 34.3089 23.3088 34.2947C23.2093 34.2782 23.104 34.2699 22.9927 34.2699C22.7276 34.2699 22.4908 34.3255 22.2825 34.4368C22.0765 34.5457 21.9132 34.6972 21.7924 34.8913C21.6741 35.0831 21.6149 35.3021 21.6149 35.5483V39H20.7768Z" fill="white"/>
<path d="M13.58 12.79C13.85 13.47 14 14.22 14 15C14 16.77 13.23 18.37 12 19.46C10.9053 20.4541 9.47871 21.0033 8 21C4.69 21 2 18.31 2 15C2 12.24 3.88 9.89999 6.42 9.20999" stroke="#F8F8F8" stroke-width="2" stroke-linecap="round" stroke-linejoin="round"/>
<path d="M17.58 9.20999C20.12 9.89999 22 12.24 22 15C22 18.31 19.31 21 16 21C14.5213 21.0033 13.0947 20.4541 12 19.46" stroke="#F8F8F8" stroke-width="2" stroke-linecap="round" stroke-linejoin="round"/>
<path d="M6 7C6 8.5913 6.63214 10.1174 7.75736 11.2426C8.88258 12.3679 10.4087 13 12 13C13.5913 13 15.1174 12.3679 16.2426 11.2426C17.3679 10.1174 18 8.5913 18 7C18 5.4087 17.3679 3.88258 16.2426 2.75736C15.1174 1.63214 13.5913 1 12 1C10.4087 1 8.88258 1.63214 7.75736 2.75736C6.63214 3.88258 6 5.4087 6 7Z" stroke="#F8F8F8" stroke-width="2" stroke-linecap="round" stroke-linejoin="round"/>
</svg>
