<svg width="22" height="41" viewBox="0 0 22 41" fill="none" xmlns="http://www.w3.org/2000/svg">
<path d="M5.88068 39V31.7273H10.2415V32.5085H6.76136V34.9659H9.91477V35.7472H6.76136V39H5.88068ZM11.6362 39V33.5455H12.4743V39H11.6362ZM12.0623 32.6364C11.899 32.6364 11.7581 32.5807 11.6397 32.4695C11.5237 32.3582 11.4657 32.2244 11.4657 32.0682C11.4657 31.9119 11.5237 31.7782 11.6397 31.6669C11.7581 31.5556 11.899 31.5 12.0623 31.5C12.2257 31.5 12.3654 31.5556 12.4814 31.6669C12.5997 31.7782 12.6589 31.9119 12.6589 32.0682C12.6589 32.2244 12.5997 32.3582 12.4814 32.4695C12.3654 32.5807 12.2257 32.6364 12.0623 32.6364ZM16.3814 33.5455V34.2557H13.5547V33.5455H16.3814ZM14.3786 32.2386H15.2166V37.4375C15.2166 37.6742 15.2509 37.8518 15.3196 37.9702C15.3906 38.0862 15.4806 38.1643 15.5895 38.2045C15.7008 38.2424 15.8179 38.2614 15.9411 38.2614C16.0334 38.2614 16.1091 38.2566 16.1683 38.2472C16.2275 38.2353 16.2749 38.2259 16.3104 38.2188L16.4808 38.9716C16.424 38.9929 16.3447 39.0142 16.2429 39.0355C16.1411 39.0592 16.0121 39.071 15.8558 39.071C15.6191 39.071 15.3871 39.0201 15.1598 38.9183C14.9349 38.8165 14.7479 38.6615 14.5987 38.4531C14.4519 38.2448 14.3786 37.982 14.3786 37.6648V32.2386Z" fill="white"/>
<path d="M8.998 5C8.983 6.707 8.888 7.648 8.268 8.268C7.648 8.888 6.707 8.984 5 8.998M8.998 16.997C8.983 15.291 8.888 14.35 8.268 13.73C7.648 13.11 6.707 13.014 5 13M13 5C13.014 6.707 13.11 7.648 13.73 8.268C14.35 8.888 15.29 8.984 16.997 8.998M13 16.997C13.014 15.291 13.11 14.35 13.73 13.73C14.35 13.11 15.29 13.014 16.997 13" stroke="#F8F8F8" stroke-width="1.5" stroke-linecap="round"/>
<path d="M1 11C1 6.286 1 3.929 2.464 2.464C3.93 1 6.286 1 11 1C15.714 1 18.071 1 19.535 2.464C21 3.93 21 6.286 21 11C21 15.714 21 18.071 19.535 19.535C18.072 21 15.714 21 11 21C6.286 21 3.929 21 2.464 19.535C1 18.072 1 15.714 1 11Z" stroke="#F8F8F8" stroke-width="1.5"/>
</svg>
