<svg width="22" height="40" viewBox="0 0 22 40" fill="none" xmlns="http://www.w3.org/2000/svg">
<path d="M3.88068 37.75V30.4773H8.24148V31.2585H4.76136V33.7159H7.91477V34.4972H4.76136V37.75H3.88068ZM10.4743 30.4773V37.75H9.63619V30.4773H10.4743ZM12.0092 37.75V32.2955H12.8473V37.75H12.0092ZM12.4354 31.3864C12.272 31.3864 12.1312 31.3307 12.0128 31.2195C11.8968 31.1082 11.8388 30.9744 11.8388 30.8182C11.8388 30.6619 11.8968 30.5282 12.0128 30.4169C12.1312 30.3056 12.272 30.25 12.4354 30.25C12.5987 30.25 12.7384 30.3056 12.8544 30.4169C12.9728 30.5282 13.032 30.6619 13.032 30.8182C13.032 30.9744 12.9728 31.1082 12.8544 31.2195C12.7384 31.3307 12.5987 31.3864 12.4354 31.3864ZM14.3823 39.7955V32.2955H15.1919V33.1619H15.2914C15.3529 33.0672 15.4382 32.9465 15.5471 32.7997C15.6583 32.6506 15.8169 32.518 16.0229 32.402C16.2312 32.2836 16.513 32.2244 16.8681 32.2244C17.3274 32.2244 17.7322 32.3393 18.0826 32.5689C18.4329 32.7985 18.7064 33.1241 18.9029 33.5455C19.0994 33.9669 19.1976 34.464 19.1976 35.0369C19.1976 35.6146 19.0994 36.1153 18.9029 36.5391C18.7064 36.9605 18.4341 37.2872 18.0861 37.5192C17.7381 37.7488 17.3368 37.8636 16.8823 37.8636C16.5319 37.8636 16.2514 37.8056 16.0407 37.6896C15.83 37.5713 15.6678 37.4375 15.5542 37.2884C15.4405 37.1368 15.3529 37.0114 15.2914 36.9119H15.2203V39.7955H14.3823ZM15.2061 35.0227C15.2061 35.4347 15.2665 35.7981 15.3873 36.1129C15.508 36.4254 15.6844 36.6705 15.9164 36.848C16.1484 37.0232 16.4325 37.1108 16.7686 37.1108C17.119 37.1108 17.4114 37.0185 17.6458 36.8338C17.8825 36.6468 18.0601 36.3958 18.1784 36.081C18.2992 35.7637 18.3596 35.411 18.3596 35.0227C18.3596 34.6392 18.3004 34.2936 18.182 33.9858C18.066 33.6757 17.8896 33.4306 17.6529 33.2507C17.4185 33.0684 17.1238 32.9773 16.7686 32.9773C16.4277 32.9773 16.1413 33.0637 15.9093 33.2365C15.6773 33.407 15.5021 33.6461 15.3837 33.9538C15.2653 34.2592 15.2061 34.6155 15.2061 35.0227Z" fill="white"/>
<path fill-rule="evenodd" clip-rule="evenodd" d="M20.7499 10.8333C21.0372 10.8333 21.3128 10.7192 21.516 10.516C21.7191 10.3129 21.8333 10.0373 21.8333 9.75C21.8333 9.46268 21.7191 9.18713 21.516 8.98397C21.3128 8.7808 21.0372 8.66667 20.7499 8.66667L1.24992 8.66667C0.962602 8.66667 0.687051 8.7808 0.483887 8.98397C0.280722 9.18713 0.166586 9.46268 0.166586 9.75C0.166586 10.0373 0.280722 10.3129 0.483887 10.516C0.687051 10.7192 0.962602 10.8333 1.24992 10.8333L20.7499 10.8333ZM17.4999 -1.89416e-07C18.0746 -1.64298e-07 18.6257 0.228273 19.032 0.634602C19.4383 1.04093 19.6666 1.59203 19.6666 2.16667L19.6666 6.5L17.4999 6.5L17.4999 2.16667L4.49992 2.16667L4.49992 6.5L2.33325 6.5L2.33325 2.16667C2.33325 1.59203 2.56153 1.04093 2.96786 0.634601C3.37418 0.228272 3.92528 -7.82782e-07 4.49992 -7.57664e-07L17.4999 -1.89416e-07ZM18.5833 11.9167C18.8706 11.9167 19.1461 12.0308 19.3493 12.234C19.5524 12.4371 19.6666 12.7127 19.6666 13L19.6666 14.0833C19.6666 14.3707 19.5524 14.6462 19.3493 14.8494C19.1461 15.0525 18.8706 15.1667 18.5833 15.1667C18.2959 15.1667 18.0204 15.0525 17.8172 14.8494C17.6141 14.6462 17.4999 14.3707 17.4999 14.0833L17.4999 13C17.4999 12.7127 17.6141 12.4371 17.8172 12.234C18.0204 12.0308 18.2959 11.9167 18.5833 11.9167ZM18.5833 16.25C18.8706 16.25 19.1461 16.3641 19.3493 16.5673C19.5524 16.7705 19.6666 17.046 19.6666 17.3333C19.6666 17.908 19.4383 18.4591 19.032 18.8654C18.6257 19.2717 18.0746 19.5 17.4999 19.5C17.2126 19.5 16.9371 19.3859 16.7339 19.1827C16.5307 18.9795 16.4166 18.704 16.4166 18.4167C16.4166 18.1293 16.5307 17.8538 16.7339 17.6506C16.9371 17.4475 17.2126 17.3333 17.4999 17.3333C17.4999 17.046 17.6141 16.7705 17.8172 16.5673C18.0204 16.3641 18.2959 16.25 18.5833 16.25ZM15.3333 18.4167C15.3333 18.704 15.2191 18.9795 15.016 19.1827C14.8128 19.3859 14.5372 19.5 14.2499 19.5L13.1666 19.5C12.8793 19.5 12.6037 19.3859 12.4006 19.1827C12.1974 18.9795 12.0833 18.704 12.0833 18.4167C12.0833 18.1293 12.1974 17.8538 12.4006 17.6506C12.6037 17.4475 12.8793 17.3333 13.1666 17.3333L14.2499 17.3333C14.5372 17.3333 14.8128 17.4475 15.016 17.6506C15.2191 17.8538 15.3333 18.1293 15.3333 18.4167ZM9.91659 18.4167C9.91659 18.704 9.80245 18.9795 9.59928 19.1827C9.39612 19.3859 9.12057 19.5 8.83325 19.5L7.74992 19.5C7.4626 19.5 7.18705 19.3859 6.98389 19.1827C6.78072 18.9795 6.66659 18.704 6.66659 18.4167C6.66659 18.1293 6.78072 17.8538 6.98389 17.6506C7.18705 17.4475 7.4626 17.3333 7.74992 17.3333L8.83325 17.3333C9.12057 17.3333 9.39612 17.4475 9.59928 17.6506C9.80245 17.8538 9.91659 18.1293 9.91659 18.4167ZM5.58325 18.4167C5.58325 18.704 5.46912 18.9795 5.26595 19.1827C5.06279 19.3859 4.78724 19.5 4.49992 19.5C3.92528 19.5 3.37418 19.2717 2.96785 18.8654C2.56153 18.4591 2.33325 17.908 2.33325 17.3333C2.33325 17.046 2.44739 16.7705 2.65055 16.5673C2.85372 16.3641 3.12927 16.25 3.41659 16.25C3.7039 16.25 3.97945 16.3641 4.18262 16.5673C4.38578 16.7705 4.49992 17.046 4.49992 17.3333C4.78724 17.3333 5.06279 17.4475 5.26595 17.6506C5.46912 17.8538 5.58325 18.1293 5.58325 18.4167ZM3.41659 11.9167C3.7039 11.9167 3.97945 12.0308 4.18262 12.234C4.38578 12.4371 4.49992 12.7127 4.49992 13L4.49992 14.0833C4.49992 14.3707 4.38578 14.6462 4.18262 14.8494C3.97945 15.0525 3.7039 15.1667 3.41659 15.1667C3.12927 15.1667 2.85372 15.0525 2.65055 14.8494C2.44739 14.6462 2.33325 14.3707 2.33325 14.0833L2.33325 13C2.33325 12.7127 2.44739 12.4371 2.65055 12.234C2.85372 12.0308 3.12927 11.9167 3.41659 11.9167Z" fill="#F8F8F8"/>
</svg>
