<svg width="23" height="41" viewBox="0 0 23 41" fill="none" xmlns="http://www.w3.org/2000/svg">
<path d="M2 11C2 6.286 2 3.929 3.464 2.464C4.93 1 7.286 1 12 1C16.714 1 19.071 1 20.535 2.464C22 3.93 22 6.286 22 11C22 15.714 22 18.071 20.535 19.535C19.072 21 16.714 21 12 21C7.286 21 4.929 21 3.464 19.535C2 18.072 2 15.714 2 11Z" stroke="#F8F8F8" stroke-width="1.5"/>
<path d="M0.880682 39V31.7273H5.24148V32.5085H1.76136V34.9659H4.91477V35.7472H1.76136V39H0.880682ZM7.47425 31.7273V39H6.63619V31.7273H7.47425ZM11.2251 39.1136C10.7327 39.1136 10.3007 38.9964 9.92898 38.7621C9.55966 38.5277 9.27083 38.1998 9.0625 37.7784C8.85653 37.357 8.75355 36.8646 8.75355 36.3011C8.75355 35.733 8.85653 35.237 9.0625 34.8132C9.27083 34.3894 9.55966 34.0604 9.92898 33.826C10.3007 33.5916 10.7327 33.4744 11.2251 33.4744C11.7176 33.4744 12.1484 33.5916 12.5178 33.826C12.8894 34.0604 13.1783 34.3894 13.3842 34.8132C13.5926 35.237 13.6967 35.733 13.6967 36.3011C13.6967 36.8646 13.5926 37.357 13.3842 37.7784C13.1783 38.1998 12.8894 38.5277 12.5178 38.7621C12.1484 38.9964 11.7176 39.1136 11.2251 39.1136ZM11.2251 38.3608C11.5992 38.3608 11.907 38.2649 12.1484 38.0732C12.3899 37.8814 12.5687 37.6293 12.6847 37.3168C12.8007 37.0043 12.8587 36.6657 12.8587 36.3011C12.8587 35.9366 12.8007 35.5968 12.6847 35.282C12.5687 34.9671 12.3899 34.7126 12.1484 34.5185C11.907 34.3243 11.5992 34.2273 11.2251 34.2273C10.8511 34.2273 10.5433 34.3243 10.3018 34.5185C10.0604 34.7126 9.88163 34.9671 9.76562 35.282C9.64962 35.5968 9.59162 35.9366 9.59162 36.3011C9.59162 36.6657 9.64962 37.0043 9.76562 37.3168C9.88163 37.6293 10.0604 37.8814 10.3018 38.0732C10.5433 38.2649 10.8511 38.3608 11.2251 38.3608ZM16.0263 39L14.3643 33.5455H15.245L16.424 37.7216H16.4808L17.6456 33.5455H18.5405L19.6911 37.7074H19.7479L20.9268 33.5455H21.8075L20.1456 39H19.3217L18.1286 34.8097H18.0433L16.8501 39H16.0263Z" fill="white"/>
<path d="M10.956 5.816H15.216C15.424 5.84 15.572 5.872 15.66 5.912C15.772 5.984 15.852 6.052 15.9 6.116C15.916 6.156 15.924 6.216 15.924 6.296C15.924 6.376 15.912 6.44 15.888 6.488C15.84 6.6 15.744 6.708 15.6 6.812C15.352 6.996 15.112 7.088 14.88 7.088C14.8 7.088 14.744 7.076 14.712 7.052C14.664 7.028 14.636 6.976 14.628 6.896V6.824L14.556 6.812C14.444 6.772 14.056 6.748 13.392 6.74H13.164H12.048L12.036 6.824C11.996 7.064 11.924 7.38 11.82 7.772C11.692 8.268 11.544 8.776 11.376 9.296C11.312 9.448 11.28 9.54 11.28 9.572H12.732H14.184L14.244 9.608C14.308 9.648 14.34 9.7 14.34 9.764C14.34 9.844 14.312 9.94 14.256 10.052C14.136 10.284 13.904 10.464 13.56 10.592C13.432 10.632 13.316 10.652 13.212 10.652C13.116 10.652 13.052 10.616 13.02 10.544L12.996 10.508H11.952C11.264 10.508 10.916 10.516 10.908 10.532C10.868 10.668 10.744 10.956 10.536 11.396C10.208 12.156 9.896 12.772 9.6 13.244C9.224 13.788 8.736 14.148 8.136 14.324C8.08 14.34 8.028 14.352 7.98 14.36C7.908 14.376 7.788 14.384 7.62 14.384C7.34 14.384 7.108 14.34 6.924 14.252C6.628 14.1 6.408 13.888 6.264 13.616C6.208 13.52 6.196 13.432 6.228 13.352C6.308 13.144 6.512 12.964 6.84 12.812C6.92 12.772 7 12.744 7.08 12.728C7.208 12.704 7.316 12.708 7.404 12.74C7.444 12.756 7.488 12.808 7.536 12.896C7.624 13.064 7.74 13.196 7.884 13.292C7.988 13.364 8.14 13.416 8.34 13.448H8.4L8.448 13.376C8.672 13.024 8.936 12.496 9.24 11.792C9.248 11.776 9.256 11.76 9.264 11.744C10.016 10.096 10.536 8.444 10.824 6.788L10.836 6.74H10.536C10.28 6.748 10.076 6.776 9.924 6.824C9.524 6.96 9.252 7.232 9.108 7.64C9.068 7.784 9.008 7.896 8.928 7.976C8.648 8.232 8.344 8.376 8.016 8.408C7.912 8.408 7.844 8.372 7.812 8.3C7.788 8.252 7.796 8.156 7.836 8.012C7.956 7.652 8.18 7.308 8.508 6.98C9.116 6.372 9.856 5.996 10.728 5.852C10.808 5.836 10.884 5.824 10.956 5.816Z" fill="white"/>
</svg>
