<svg width="37" height="40" viewBox="0 0 37 40" fill="none" xmlns="http://www.w3.org/2000/svg">
<path d="M8.88068 38V30.7273H13.2415V31.5085H9.76136V33.9659H12.9148V34.7472H9.76136V38H8.88068ZM15.176 30.7273L17.051 33.7528H17.1078L18.9828 30.7273H20.0197L17.7328 34.3636L20.0197 38H18.9828L17.1078 35.0312H17.051L15.176 38H14.139L16.4828 34.3636L14.139 30.7273H15.176Z" fill="white"/>
<path d="M17.8001 17.8178L25 17.8178M21.4 3.52155L25 3.52155M23.2 10.3593L25 10.3593M9.97131 3.30954L5.75574 1.13017C5.5803 1.03371 5.38034 0.989433 5.17997 1.00267C4.9796 1.01591 4.78739 1.08611 4.62655 1.20479C4.46285 1.32319 4.33538 1.48384 4.25815 1.66909C4.18709 1.85236 4.16518 2.05064 4.19455 2.24472L5.00695 6.86878C5.04527 7.03804 5.04527 7.21357 5.00695 7.38283C4.95078 7.54897 4.85488 7.69929 4.72735 7.82107L1.32537 11.0925C1.18394 11.2326 1.08335 11.4077 1.03415 11.5995C0.984956 11.7912 0.98897 11.9925 1.04578 12.1822C1.10705 12.3707 1.22037 12.5386 1.37299 12.6671C1.52561 12.7956 1.7115 12.8795 1.90977 12.9094L6.61974 13.5727C6.79288 13.6003 6.95688 13.6682 7.09816 13.7707C7.23944 13.8733 7.35392 14.0076 7.43213 14.1626L9.53931 18.3981C9.62403 18.5745 9.75675 18.7242 9.92267 18.8305C10.0886 18.9367 10.2812 18.9954 10.4789 18.9998C10.6817 19.0036 10.8808 18.9466 11.0501 18.8364C11.2247 18.7347 11.3624 18.5814 11.4437 18.3981L13.6025 14.1626C13.6803 14.0098 13.793 13.877 13.9316 13.7747C14.0703 13.6723 14.2313 13.6032 14.4017 13.5727L19.048 12.9094C19.2485 12.8804 19.4373 12.7981 19.594 12.6714C19.7499 12.5435 19.8646 12.3735 19.924 12.1822C19.975 11.9902 19.9738 11.7884 19.9205 11.5971C19.8672 11.4058 19.7637 11.2317 19.6204 11.0925L16.2161 7.82107C16.0937 7.69552 15.9977 7.54628 15.9365 7.38283C15.8981 7.21357 15.8981 7.03804 15.9365 6.86878L16.7489 2.24473C16.8051 2.05687 16.8051 1.85695 16.7489 1.66909C16.672 1.48398 16.5449 1.32335 16.3817 1.20479C16.2207 1.08587 16.0283 1.01553 15.8277 1.00229C15.627 0.989048 15.4268 1.03346 15.2513 1.13017L11.0357 3.30954C10.8795 3.39186 10.7052 3.43493 10.5281 3.43493C10.351 3.43493 10.1767 3.39186 10.0205 3.30954L9.97131 3.30954Z" stroke="#F8F8F8" stroke-width="1.5" stroke-linecap="round" stroke-linejoin="round"/>
</svg>
