<svg width="29" height="41" viewBox="0 0 29 41" fill="none" xmlns="http://www.w3.org/2000/svg">
<path d="M0.880682 31.7273H1.93182L4.40341 37.7642H4.48864L6.96023 31.7273H8.01136V39H7.1875V33.4744H7.11648L4.84375 39H4.0483L1.77557 33.4744H1.70455V39H0.880682V31.7273ZM9.66353 39V33.5455H10.5016V39H9.66353ZM10.0897 32.6364C9.92631 32.6364 9.78545 32.5807 9.66708 32.4695C9.55108 32.3582 9.49308 32.2244 9.49308 32.0682C9.49308 31.9119 9.55108 31.7782 9.66708 31.6669C9.78545 31.5556 9.92631 31.5 10.0897 31.5C10.253 31.5 10.3927 31.5556 10.5087 31.6669C10.6271 31.7782 10.6863 31.9119 10.6863 32.0682C10.6863 32.2244 10.6271 32.3582 10.5087 32.4695C10.3927 32.5807 10.253 32.6364 10.0897 32.6364ZM12.0366 39V33.5455H12.8462V34.3693H12.9031C13.0025 34.0994 13.1824 33.8804 13.4428 33.7124C13.7032 33.5443 13.9968 33.4602 14.3235 33.4602C14.3851 33.4602 14.462 33.4614 14.5543 33.4638C14.6467 33.4661 14.7165 33.4697 14.7638 33.4744V34.3267C14.7354 34.3196 14.6703 34.3089 14.5685 34.2947C14.4691 34.2782 14.3638 34.2699 14.2525 34.2699C13.9873 34.2699 13.7506 34.3255 13.5423 34.4368C13.3363 34.5457 13.1729 34.6972 13.0522 34.8913C12.9338 35.0831 12.8746 35.3021 12.8746 35.5483V39H12.0366ZM15.7573 39V33.5455H16.5669V34.3693H16.6238C16.7232 34.0994 16.9031 33.8804 17.1635 33.7124C17.4239 33.5443 17.7175 33.4602 18.0442 33.4602C18.1058 33.4602 18.1827 33.4614 18.275 33.4638C18.3674 33.4661 18.4372 33.4697 18.4846 33.4744V34.3267C18.4561 34.3196 18.391 34.3089 18.2892 34.2947C18.1898 34.2782 18.0845 34.2699 17.9732 34.2699C17.708 34.2699 17.4713 34.3255 17.263 34.4368C17.057 34.5457 16.8936 34.6972 16.7729 34.8913C16.6545 35.0831 16.5953 35.3021 16.5953 35.5483V39H15.7573ZM21.5279 39.1136C21.0355 39.1136 20.6034 38.9964 20.2317 38.7621C19.8624 38.5277 19.5736 38.1998 19.3652 37.7784C19.1593 37.357 19.0563 36.8646 19.0563 36.3011C19.0563 35.733 19.1593 35.237 19.3652 34.8132C19.5736 34.3894 19.8624 34.0604 20.2317 33.826C20.6034 33.5916 21.0355 33.4744 21.5279 33.4744C22.0203 33.4744 22.4512 33.5916 22.8205 33.826C23.1922 34.0604 23.481 34.3894 23.687 34.8132C23.8953 35.237 23.9995 35.733 23.9995 36.3011C23.9995 36.8646 23.8953 37.357 23.687 37.7784C23.481 38.1998 23.1922 38.5277 22.8205 38.7621C22.4512 38.9964 22.0203 39.1136 21.5279 39.1136ZM21.5279 38.3608C21.9019 38.3608 22.2097 38.2649 22.4512 38.0732C22.6926 37.8814 22.8714 37.6293 22.9874 37.3168C23.1034 37.0043 23.1614 36.6657 23.1614 36.3011C23.1614 35.9366 23.1034 35.5968 22.9874 35.282C22.8714 34.9671 22.6926 34.7126 22.4512 34.5185C22.2097 34.3243 21.9019 34.2273 21.5279 34.2273C21.1538 34.2273 20.8461 34.3243 20.6046 34.5185C20.3631 34.7126 20.1844 34.9671 20.0684 35.282C19.9524 35.5968 19.8944 35.9366 19.8944 36.3011C19.8944 36.6657 19.9524 37.0043 20.0684 37.3168C20.1844 37.6293 20.3631 37.8814 20.6046 38.0732C20.8461 38.2649 21.1538 38.3608 21.5279 38.3608ZM25.2788 39V33.5455H26.0884V34.3693H26.1452C26.2447 34.0994 26.4246 33.8804 26.685 33.7124C26.9454 33.5443 27.239 33.4602 27.5657 33.4602C27.6272 33.4602 27.7042 33.4614 27.7965 33.4638C27.8888 33.4661 27.9587 33.4697 28.006 33.4744V34.3267C27.9776 34.3196 27.9125 34.3089 27.8107 34.2947C27.7113 34.2782 27.6059 34.2699 27.4947 34.2699C27.2295 34.2699 26.9928 34.3255 26.7844 34.4368C26.5785 34.5457 26.4151 34.6972 26.2944 34.8913C26.176 35.0831 26.1168 35.3021 26.1168 35.5483V39H25.2788Z" fill="white"/>
<path fill-rule="evenodd" clip-rule="evenodd" d="M14.0833 1.24999C14.0833 0.962672 13.9692 0.687122 13.766 0.483957C13.5629 0.280793 13.2873 0.166656 13 0.166656C12.7127 0.166656 12.4371 0.280793 12.234 0.483957C12.0308 0.687122 11.9167 0.962672 11.9167 1.24999V20.75C11.9167 21.0373 12.0308 21.3129 12.234 21.516C12.4371 21.7192 12.7127 21.8333 13 21.8333C13.2873 21.8333 13.5629 21.7192 13.766 21.516C13.9692 21.3129 14.0833 21.0373 14.0833 20.75V1.24999ZM3.25 4.49999C3.25 3.92535 3.47827 3.37425 3.8846 2.96792C4.29093 2.5616 4.84203 2.33332 5.41667 2.33332H9.75V4.49999H5.41667V17.5H9.75V19.6667H5.41667C4.84203 19.6667 4.29093 19.4384 3.8846 19.0321C3.47827 18.6257 3.25 18.0746 3.25 17.5V4.49999ZM15.1667 3.41666C15.1667 3.12934 15.2808 2.85379 15.484 2.65062C15.6871 2.44746 15.9627 2.33332 16.25 2.33332H17.3333C17.6207 2.33332 17.8962 2.44746 18.0994 2.65062C18.3025 2.85379 18.4167 3.12934 18.4167 3.41666C18.4167 3.70397 18.3025 3.97952 18.0994 4.18269C17.8962 4.38585 17.6207 4.49999 17.3333 4.49999H16.25C15.9627 4.49999 15.6871 4.38585 15.484 4.18269C15.2808 3.97952 15.1667 3.70397 15.1667 3.41666ZM19.5 3.41666C19.5 3.12934 19.6141 2.85379 19.8173 2.65062C20.0205 2.44746 20.296 2.33332 20.5833 2.33332C21.158 2.33332 21.7091 2.5616 22.1154 2.96792C22.5217 3.37425 22.75 3.92535 22.75 4.49999C22.75 4.78731 22.6359 5.06286 22.4327 5.26602C22.2295 5.46919 21.954 5.58332 21.6667 5.58332C21.3793 5.58332 21.1038 5.46919 20.9006 5.26602C20.6975 5.06286 20.5833 4.78731 20.5833 4.49999C20.296 4.49999 20.0205 4.38585 19.8173 4.18269C19.6141 3.97952 19.5 3.70397 19.5 3.41666ZM21.6667 6.66666C21.954 6.66666 22.2295 6.78079 22.4327 6.98396C22.6359 7.18712 22.75 7.46267 22.75 7.74999V8.83332C22.75 9.12064 22.6359 9.39619 22.4327 9.59935C22.2295 9.80252 21.954 9.91666 21.6667 9.91666C21.3793 9.91666 21.1038 9.80252 20.9006 9.59935C20.6975 9.39619 20.5833 9.12064 20.5833 8.83332V7.74999C20.5833 7.46267 20.6975 7.18712 20.9006 6.98396C21.1038 6.78079 21.3793 6.66666 21.6667 6.66666ZM21.6667 12.0833C21.954 12.0833 22.2295 12.1975 22.4327 12.4006C22.6359 12.6038 22.75 12.8793 22.75 13.1667V14.25C22.75 14.5373 22.6359 14.8129 22.4327 15.016C22.2295 15.2192 21.954 15.3333 21.6667 15.3333C21.3793 15.3333 21.1038 15.2192 20.9006 15.016C20.6975 14.8129 20.5833 14.5373 20.5833 14.25V13.1667C20.5833 12.8793 20.6975 12.6038 20.9006 12.4006C21.1038 12.1975 21.3793 12.0833 21.6667 12.0833ZM21.6667 16.4167C21.954 16.4167 22.2295 16.5308 22.4327 16.734C22.6359 16.9371 22.75 17.2127 22.75 17.5C22.75 18.0746 22.5217 18.6257 22.1154 19.0321C21.7091 19.4384 21.158 19.6667 20.5833 19.6667C20.296 19.6667 20.0205 19.5525 19.8173 19.3494C19.6141 19.1462 19.5 18.8706 19.5 18.5833C19.5 18.296 19.6141 18.0205 19.8173 17.8173C20.0205 17.6141 20.296 17.5 20.5833 17.5C20.5833 17.2127 20.6975 16.9371 20.9006 16.734C21.1038 16.5308 21.3793 16.4167 21.6667 16.4167ZM15.1667 18.5833C15.1667 18.296 15.2808 18.0205 15.484 17.8173C15.6871 17.6141 15.9627 17.5 16.25 17.5H17.3333C17.6207 17.5 17.8962 17.6141 18.0994 17.8173C18.3025 18.0205 18.4167 18.296 18.4167 18.5833C18.4167 18.8706 18.3025 19.1462 18.0994 19.3494C17.8962 19.5525 17.6207 19.6667 17.3333 19.6667H16.25C15.9627 19.6667 15.6871 19.5525 15.484 19.3494C15.2808 19.1462 15.1667 18.8706 15.1667 18.5833Z" fill="#F8F8F8"/>
</svg>
