<svg width="31" height="42" viewBox="0 0 31 42" fill="none" xmlns="http://www.w3.org/2000/svg">
<path d="M0.880682 40V32.7273H3.33807C3.90625 32.7273 4.37263 32.8243 4.73722 33.0185C5.1018 33.2102 5.37169 33.4742 5.54688 33.8104C5.72206 34.1465 5.80966 34.5289 5.80966 34.9574C5.80966 35.3859 5.72206 35.7659 5.54688 36.0973C5.37169 36.4287 5.10298 36.6892 4.74077 36.8786C4.37855 37.0656 3.91572 37.1591 3.35227 37.1591H1.36364V36.3636H3.32386C3.71212 36.3636 4.02462 36.3068 4.26136 36.1932C4.50047 36.0795 4.6733 35.9186 4.77983 35.7102C4.88873 35.4995 4.94318 35.2486 4.94318 34.9574C4.94318 34.6662 4.88873 34.4117 4.77983 34.1939C4.67093 33.9761 4.49692 33.808 4.25781 33.6896C4.0187 33.5689 3.70265 33.5085 3.30966 33.5085H1.76136V40H0.880682ZM4.30398 36.733L6.09375 40H5.07102L3.30966 36.733H4.30398ZM9.32085 40.1136C8.82842 40.1136 8.39637 39.9964 8.02468 39.7621C7.65536 39.5277 7.36654 39.1998 7.1582 38.7784C6.95224 38.357 6.84925 37.8646 6.84925 37.3011C6.84925 36.733 6.95224 36.237 7.1582 35.8132C7.36654 35.3894 7.65536 35.0604 8.02468 34.826C8.39637 34.5916 8.82842 34.4744 9.32085 34.4744C9.81327 34.4744 10.2441 34.5916 10.6135 34.826C10.9851 35.0604 11.274 35.3894 11.4799 35.8132C11.6883 36.237 11.7924 36.733 11.7924 37.3011C11.7924 37.8646 11.6883 38.357 11.4799 38.7784C11.274 39.1998 10.9851 39.5277 10.6135 39.7621C10.2441 39.9964 9.81327 40.1136 9.32085 40.1136ZM9.32085 39.3608C9.6949 39.3608 10.0027 39.2649 10.2441 39.0732C10.4856 38.8814 10.6644 38.6293 10.7804 38.3168C10.8964 38.0043 10.9544 37.6657 10.9544 37.3011C10.9544 36.9366 10.8964 36.5968 10.7804 36.282C10.6644 35.9671 10.4856 35.7126 10.2441 35.5185C10.0027 35.3243 9.6949 35.2273 9.32085 35.2273C8.94679 35.2273 8.63903 35.3243 8.39755 35.5185C8.15607 35.7126 7.97733 35.9671 7.86133 36.282C7.74532 36.5968 7.68732 36.9366 7.68732 37.3011C7.68732 37.6657 7.74532 38.0043 7.86133 38.3168C7.97733 38.6293 8.15607 38.8814 8.39755 39.0732C8.63903 39.2649 8.94679 39.3608 9.32085 39.3608ZM15.4439 34.5455V35.2557H12.6172V34.5455H15.4439ZM13.4411 33.2386H14.2791V38.4375C14.2791 38.6742 14.3134 38.8518 14.3821 38.9702C14.4531 39.0862 14.5431 39.1643 14.652 39.2045C14.7633 39.2424 14.8804 39.2614 15.0036 39.2614C15.0959 39.2614 15.1716 39.2566 15.2308 39.2472C15.29 39.2353 15.3374 39.2259 15.3729 39.2188L15.5433 39.9716C15.4865 39.9929 15.4072 40.0142 15.3054 40.0355C15.2036 40.0592 15.0746 40.071 14.9183 40.071C14.6816 40.071 14.4496 40.0201 14.2223 39.9183C13.9974 39.8165 13.8104 39.6615 13.6612 39.4531C13.5144 39.2448 13.4411 38.982 13.4411 38.6648V33.2386ZM18.3097 40.1278C17.964 40.1278 17.6503 40.0627 17.3686 39.9325C17.0869 39.8 16.8632 39.6094 16.6974 39.3608C16.5317 39.1098 16.4489 38.8068 16.4489 38.4517C16.4489 38.1392 16.5104 37.8859 16.6335 37.6918C16.7566 37.4953 16.9212 37.3414 17.1271 37.2301C17.3331 37.1188 17.5604 37.036 17.8089 36.9815C18.0599 36.9247 18.312 36.8797 18.5653 36.8466C18.8968 36.804 19.1655 36.772 19.3714 36.7507C19.5798 36.727 19.7313 36.688 19.826 36.6335C19.9231 36.5791 19.9716 36.4844 19.9716 36.3494V36.321C19.9716 35.9706 19.8757 35.6984 19.6839 35.5043C19.4946 35.3101 19.2069 35.2131 18.821 35.2131C18.4209 35.2131 18.1072 35.3007 17.88 35.4759C17.6527 35.651 17.4929 35.8381 17.4006 36.0369L16.6051 35.7528C16.7472 35.4214 16.9366 35.1634 17.1733 34.9787C17.4124 34.7917 17.6728 34.6615 17.9545 34.5881C18.2386 34.5123 18.518 34.4744 18.7926 34.4744C18.9678 34.4744 19.169 34.4957 19.3963 34.5384C19.6259 34.5786 19.8473 34.6626 20.0604 34.7905C20.2758 34.9183 20.4545 35.1113 20.5966 35.3693C20.7386 35.6274 20.8097 35.973 20.8097 36.4062V40H19.9716V39.2614H19.929C19.8722 39.3797 19.7775 39.5064 19.6449 39.6413C19.5123 39.7763 19.3359 39.8911 19.1158 39.9858C18.8956 40.0805 18.6269 40.1278 18.3097 40.1278ZM18.4375 39.375C18.7689 39.375 19.0483 39.3099 19.2756 39.1797C19.5052 39.0495 19.678 38.8814 19.794 38.6754C19.9124 38.4695 19.9716 38.2528 19.9716 38.0256V37.2585C19.9361 37.3011 19.858 37.3402 19.7372 37.3757C19.6188 37.4089 19.4815 37.4384 19.3253 37.4645C19.1714 37.4882 19.0211 37.5095 18.8743 37.5284C18.7299 37.545 18.6127 37.5592 18.5227 37.571C18.3049 37.5994 18.1013 37.6456 17.9119 37.7095C17.7249 37.7711 17.5734 37.8646 17.4574 37.9901C17.3438 38.1132 17.2869 38.2812 17.2869 38.4943C17.2869 38.7855 17.3946 39.0057 17.6101 39.1548C17.8279 39.3016 18.1037 39.375 18.4375 39.375ZM24.7115 34.5455V35.2557H21.8848V34.5455H24.7115ZM22.7086 33.2386H23.5467V38.4375C23.5467 38.6742 23.581 38.8518 23.6497 38.9702C23.7207 39.0862 23.8107 39.1643 23.9196 39.2045C24.0308 39.2424 24.148 39.2614 24.2711 39.2614C24.3635 39.2614 24.4392 39.2566 24.4984 39.2472C24.5576 39.2353 24.6049 39.2259 24.6404 39.2188L24.8109 39.9716C24.7541 39.9929 24.6748 40.0142 24.573 40.0355C24.4712 40.0592 24.3422 40.071 24.1859 40.071C23.9492 40.071 23.7172 40.0201 23.4899 39.9183C23.265 39.8165 23.0779 39.6615 22.9288 39.4531C22.782 39.2448 22.7086 38.982 22.7086 38.6648V33.2386ZM28.2005 40.1136C27.6749 40.1136 27.2215 39.9976 26.8404 39.7656C26.4616 39.5312 26.1692 39.2045 25.9632 38.7855C25.7596 38.3641 25.6578 37.8741 25.6578 37.3153C25.6578 36.7566 25.7596 36.2642 25.9632 35.8381C26.1692 35.4096 26.4557 35.0758 26.8226 34.8366C27.1919 34.5952 27.6228 34.4744 28.1152 34.4744C28.3993 34.4744 28.6799 34.5218 28.9569 34.6165C29.2338 34.7112 29.486 34.8651 29.7132 35.0781C29.9405 35.2888 30.1216 35.5682 30.2566 35.9162C30.3915 36.2642 30.459 36.6927 30.459 37.2017V37.5568H26.2544V36.8324H29.6067C29.6067 36.5246 29.5452 36.25 29.4221 36.0085C29.3013 35.767 29.1285 35.5765 28.9036 35.4368C28.681 35.2971 28.4183 35.2273 28.1152 35.2273C27.7814 35.2273 27.4926 35.3101 27.2488 35.4759C27.0073 35.6392 26.8214 35.8523 26.6912 36.1151C26.561 36.3778 26.4959 36.6596 26.4959 36.9602V37.4432C26.4959 37.8551 26.5669 38.2043 26.709 38.4908C26.8534 38.7749 27.0534 38.9915 27.3091 39.1406C27.5648 39.2874 27.8619 39.3608 28.2005 39.3608C28.4206 39.3608 28.6195 39.33 28.7971 39.2685C28.977 39.2045 29.132 39.1098 29.2623 38.9844C29.3925 38.8565 29.4931 38.6979 29.5641 38.5085L30.3738 38.7358C30.2885 39.0104 30.1453 39.2519 29.9441 39.4602C29.7428 39.6662 29.4943 39.8272 29.1983 39.9432C28.9024 40.0568 28.5698 40.1136 28.2005 40.1136Z" fill="white"/>
<path d="M8 20.4286V11C8.00041 10.5834 8.16263 10.1839 8.45105 9.88929C8.73948 9.59468 9.13056 9.42899 9.53846 9.42857H18.7692C19.1771 9.42899 19.5682 9.59468 19.8566 9.88929C20.1451 10.1839 20.3073 10.5834 20.3077 11V20.4286C20.3073 20.8452 20.1451 21.2447 19.8566 21.5393C19.5682 21.8339 19.1771 21.9996 18.7692 22H9.53846C9.13056 21.9996 8.73948 21.8339 8.45105 21.5393C8.16263 21.2447 8.00041 20.8452 8 20.4286ZM9.53846 11L9.53769 20.4286H18.7692V11H9.53846ZM19.5385 0L20.6231 1.10786L18.6385 3.14286H22.6154C24.043 3.14452 25.4116 3.72452 26.4211 4.75561C27.4305 5.7867 27.9984 7.18468 28 8.64286V12.5714H26.4615V8.64286C26.4603 7.60132 26.0547 6.6028 25.3337 5.86632C24.6126 5.12984 23.6351 4.71553 22.6154 4.71429H18.6385L20.6231 6.74929L19.5385 7.85714L15.6923 3.92857L19.5385 0Z" fill="#F8F8F8"/>
</svg>
