<svg width="31" height="44" viewBox="0 0 31 44" fill="none" xmlns="http://www.w3.org/2000/svg">
<path d="M6.85795 35.5455C6.81534 35.1856 6.64252 34.9062 6.33949 34.7074C6.03646 34.5085 5.66477 34.4091 5.22443 34.4091C4.90246 34.4091 4.62074 34.4612 4.37926 34.5653C4.14015 34.6695 3.95313 34.8127 3.81818 34.995C3.68561 35.1773 3.61932 35.3845 3.61932 35.6165C3.61932 35.8106 3.66548 35.9775 3.75781 36.1172C3.85251 36.2545 3.97325 36.3693 4.12003 36.4616C4.26681 36.5516 4.42069 36.6262 4.58168 36.6854C4.74266 36.7422 4.89062 36.7884 5.02557 36.8239L5.7642 37.0227C5.9536 37.0724 6.1643 37.1411 6.39631 37.2287C6.63068 37.3163 6.8544 37.4358 7.06747 37.5874C7.28291 37.7365 7.46046 37.9283 7.60014 38.1626C7.73982 38.397 7.80966 38.6847 7.80966 39.0256C7.80966 39.4186 7.70668 39.7737 7.50071 40.0909C7.29711 40.4081 6.99882 40.6603 6.60582 40.8473C6.2152 41.0343 5.74053 41.1278 5.18182 41.1278C4.66098 41.1278 4.20999 41.0438 3.82884 40.8757C3.45005 40.7076 3.15175 40.4732 2.93395 40.1726C2.71851 39.8719 2.59659 39.5227 2.56818 39.125H3.47727C3.50095 39.3996 3.59328 39.6269 3.75426 39.8068C3.91761 39.9844 4.12358 40.117 4.37216 40.2045C4.62311 40.2898 4.89299 40.3324 5.18182 40.3324C5.51799 40.3324 5.81984 40.2779 6.08736 40.169C6.35488 40.0578 6.56676 39.9039 6.72301 39.7074C6.87926 39.5085 6.95739 39.2765 6.95739 39.0114C6.95739 38.7699 6.88991 38.5734 6.75497 38.4219C6.62003 38.2704 6.44247 38.1473 6.2223 38.0526C6.00213 37.9579 5.7642 37.875 5.50852 37.804L4.61364 37.5483C4.04545 37.3849 3.59564 37.1518 3.2642 36.8487C2.93277 36.5457 2.76705 36.1491 2.76705 35.6591C2.76705 35.2519 2.87713 34.8968 3.0973 34.5938C3.31984 34.2884 3.61813 34.0516 3.99219 33.8835C4.36861 33.7131 4.78883 33.6278 5.25284 33.6278C5.72159 33.6278 6.13826 33.7119 6.50284 33.88C6.86742 34.0457 7.15625 34.273 7.36932 34.5618C7.58475 34.8506 7.69839 35.1785 7.71023 35.5455H6.85795ZM9.144 43.0455V35.5455H9.95366V36.4119H10.0531C10.1146 36.3172 10.1999 36.1965 10.3088 36.0497C10.42 35.9006 10.5787 35.768 10.7846 35.652C10.993 35.5336 11.2747 35.4744 11.6298 35.4744C12.0891 35.4744 12.4939 35.5893 12.8443 35.8189C13.1947 36.0485 13.4681 36.3741 13.6646 36.7955C13.8611 37.2169 13.9593 37.714 13.9593 38.2869C13.9593 38.8646 13.8611 39.3653 13.6646 39.7891C13.4681 40.2105 13.1958 40.5372 12.8478 40.7692C12.4998 40.9988 12.0985 41.1136 11.644 41.1136C11.2936 41.1136 11.0131 41.0556 10.8024 40.9396C10.5917 40.8213 10.4295 40.6875 10.3159 40.5384C10.2022 40.3868 10.1146 40.2614 10.0531 40.1619H9.98207V43.0455H9.144ZM9.96786 38.2727C9.96786 38.6847 10.0282 39.0481 10.149 39.3629C10.2697 39.6754 10.4461 39.9205 10.6781 40.098C10.9101 40.2732 11.1942 40.3608 11.5304 40.3608C11.8807 40.3608 12.1731 40.2685 12.4075 40.0838C12.6442 39.8968 12.8218 39.6458 12.9402 39.331C13.0609 39.0137 13.1213 38.661 13.1213 38.2727C13.1213 37.8892 13.0621 37.5436 12.9437 37.2358C12.8277 36.9257 12.6513 36.6806 12.4146 36.5007C12.1802 36.3184 11.8855 36.2273 11.5304 36.2273C11.1895 36.2273 10.903 36.3137 10.671 36.4865C10.439 36.657 10.2638 36.8961 10.1454 37.2038C10.027 37.5092 9.96786 37.8655 9.96786 38.2727ZM16.0758 33.7273V41H15.2377V33.7273H16.0758ZM17.6108 41V35.5455H18.4489V41H17.6108ZM18.0369 34.6364C17.8736 34.6364 17.7327 34.5807 17.6143 34.4695C17.4983 34.3582 17.4403 34.2244 17.4403 34.0682C17.4403 33.9119 17.4983 33.7782 17.6143 33.6669C17.7327 33.5556 17.8736 33.5 18.0369 33.5C18.2003 33.5 18.34 33.5556 18.456 33.6669C18.5743 33.7782 18.6335 33.9119 18.6335 34.0682C18.6335 34.2244 18.5743 34.3582 18.456 34.4695C18.34 34.5807 18.2003 34.6364 18.0369 34.6364ZM22.356 35.5455V36.2557H19.5293V35.5455H22.356ZM20.3532 34.2386H21.1912V39.4375C21.1912 39.6742 21.2256 39.8518 21.2942 39.9702C21.3652 40.0862 21.4552 40.1643 21.5641 40.2045C21.6754 40.2424 21.7926 40.2614 21.9157 40.2614C22.008 40.2614 22.0837 40.2566 22.1429 40.2472C22.2021 40.2353 22.2495 40.2259 22.285 40.2188L22.4554 40.9716C22.3986 40.9929 22.3193 41.0142 22.2175 41.0355C22.1157 41.0592 21.9867 41.071 21.8304 41.071C21.5937 41.071 21.3617 41.0201 21.1344 40.9183C20.9095 40.8165 20.7225 40.6615 20.5733 40.4531C20.4266 40.2448 20.3532 39.982 20.3532 39.6648V34.2386Z" fill="white"/>
<path d="M4.05556 22C4.86594 22 5.64313 21.6912 6.21616 21.1416C6.78919 20.5919 7.11111 19.8464 7.11111 19.0691C7.11111 18.2918 6.78919 17.5463 6.21616 16.9966C5.64313 16.447 4.86594 16.1382 4.05556 16.1382C3.24517 16.1382 2.46798 16.447 1.89495 16.9966C1.32192 17.5463 1 18.2918 1 19.0691C1 19.8464 1.32192 20.5919 1.89495 21.1416C2.46798 21.6912 3.24517 22 4.05556 22ZM19.9444 22C20.7548 22 21.532 21.6912 22.105 21.1416C22.6781 20.5919 23 19.8464 23 19.0691C23 18.2918 22.6781 17.5463 22.105 16.9966C21.532 16.447 20.7548 16.1382 19.9444 16.1382C19.1341 16.1382 18.3569 16.447 17.7838 16.9966C17.2108 17.5463 16.8889 18.2918 16.8889 19.0691C16.8889 19.8464 17.2108 20.5919 17.7838 21.1416C18.3569 21.6912 19.1341 22 19.9444 22Z" stroke="white" stroke-width="2" stroke-linejoin="round"/>
<path d="M6.73047 20.4836L8.02786 18.3751L18.4167 1.1149" stroke="white" stroke-width="2" stroke-linecap="round"/>
<path d="M5.58081 1L15.9697 18.2602L17.2714 20.4835" stroke="white" stroke-width="2" stroke-linecap="round"/>
</svg>
