<svg width="15" height="15" viewBox="0 0 15 15" fill="none" xmlns="http://www.w3.org/2000/svg">
<g clip-path="url(#clip0_101_2)">
<path d="M3.5 11.5L3.071 11.243C3.01363 11.3386 2.98986 11.4507 3.00348 11.5613C3.01711 11.672 3.06733 11.775 3.14618 11.8538C3.22503 11.9327 3.32798 11.9829 3.43865 11.9965C3.54933 12.0101 3.66138 11.9864 3.757 11.929L3.5 11.5ZM6.5 6.5L6.243 6.071L6.136 6.136L6.071 6.243L6.5 6.5ZM11.5 3.5L11.929 3.757C11.9864 3.66138 12.0101 3.54933 11.9965 3.43865C11.9829 3.32798 11.9327 3.22503 11.8538 3.14618C11.775 3.06733 11.672 3.01711 11.5613 3.00348C11.4507 2.98986 11.3386 3.01363 11.243 3.071L11.5 3.5ZM8.5 8.5L8.757 8.929L8.864 8.864L8.929 8.757L8.5 8.5ZM14 7.5C14 8.35359 13.8319 9.19883 13.5052 9.98744C13.1786 10.7761 12.6998 11.4926 12.0962 12.0962C11.4926 12.6998 10.7761 13.1786 9.98744 13.5052C9.19883 13.8319 8.35359 14 7.5 14V15C9.48912 15 11.3968 14.2098 12.8033 12.8033C14.2098 11.3968 15 9.48912 15 7.5H14ZM7.5 14C5.77609 14 4.12279 13.3152 2.90381 12.0962C1.68482 10.8772 1 9.22391 1 7.5H0C0 9.48912 0.790176 11.3968 2.1967 12.8033C3.60322 14.2098 5.51088 15 7.5 15V14ZM1 7.5C1 5.77609 1.68482 4.12279 2.90381 2.90381C4.12279 1.68482 5.77609 1 7.5 1V0C5.51088 0 3.60322 0.790176 2.1967 2.1967C0.790176 3.60322 0 5.51088 0 7.5H1ZM7.5 1C8.35359 1 9.19883 1.16813 9.98744 1.49478C10.7761 1.82144 11.4926 2.30023 12.0962 2.90381C12.6998 3.50739 13.1786 4.22394 13.5052 5.01256C13.8319 5.80117 14 6.64641 14 7.5H15C15 5.51088 14.2098 3.60322 12.8033 2.1967C11.3968 0.790176 9.48912 0 7.5 0V1ZM3.929 11.757L6.929 6.757L6.071 6.243L3.071 11.243L3.929 11.757ZM6.757 6.93L11.757 3.93L11.243 3.071L6.243 6.071L6.757 6.93ZM11.071 3.244L8.071 8.244L8.929 8.758L11.929 3.757L11.071 3.244ZM8.243 8.07L3.243 11.07L3.757 11.929L8.757 8.929L8.243 8.07Z" fill="black"/>
</g>
<defs>
<clipPath id="clip0_101_2">
<rect width="15" height="15" fill="white"/>
</clipPath>
</defs>
</svg>
