<svg width="30" height="42" viewBox="0 0 30 42" fill="none" xmlns="http://www.w3.org/2000/svg">
<path d="M2 12C2 7.286 2 4.929 3.464 3.464C4.93 2 7.286 2 12 2C16.714 2 19.071 2 20.535 3.464C22 4.93 22 7.286 22 12C22 16.714 22 19.071 20.535 20.535C19.072 22 16.714 22 12 22C7.286 22 4.929 22 3.464 20.535C2 19.072 2 16.714 2 12Z" stroke="#F8F8F8" stroke-width="1.5"/>
<path d="M9 8L5 12L9 16" stroke="#F8F8F8" stroke-width="2" stroke-linecap="round" stroke-linejoin="round"/>
<path d="M14 16L18 12L14 8" stroke="#F8F8F8" stroke-width="2" stroke-linecap="round" stroke-linejoin="round"/>
<path d="M1.48295 33.5085V32.7273H6.9375V33.5085H4.65057V40H3.76989V33.5085H1.48295ZM7.61665 40V34.5455H8.42631V35.3693H8.48313C8.58256 35.0994 8.76249 34.8804 9.0229 34.7124C9.28332 34.5443 9.57688 34.4602 9.90359 34.4602C9.96514 34.4602 10.0421 34.4614 10.1344 34.4638C10.2267 34.4661 10.2966 34.4697 10.3439 34.4744V35.3267C10.3155 35.3196 10.2504 35.3089 10.1486 35.2947C10.0492 35.2782 9.94383 35.2699 9.83256 35.2699C9.56741 35.2699 9.33067 35.3255 9.12234 35.4368C8.91637 35.5457 8.75302 35.6972 8.63228 35.8913C8.51391 36.0831 8.45472 36.3021 8.45472 36.5483V40H7.61665ZM11.3374 40V34.5455H12.1754V40H11.3374ZM11.7635 33.6364C11.6001 33.6364 11.4593 33.5807 11.3409 33.4695C11.2249 33.3582 11.1669 33.2244 11.1669 33.0682C11.1669 32.9119 11.2249 32.7782 11.3409 32.6669C11.4593 32.5556 11.6001 32.5 11.7635 32.5C11.9268 32.5 12.0665 32.5556 12.1825 32.6669C12.3009 32.7782 12.3601 32.9119 12.3601 33.0682C12.3601 33.2244 12.3009 33.3582 12.1825 33.4695C12.0665 33.5807 11.9268 33.6364 11.7635 33.6364ZM13.7104 40V34.5455H14.5201V35.3977H14.5911C14.7047 35.1065 14.8882 34.8804 15.1415 34.7195C15.3948 34.5561 15.699 34.4744 16.0542 34.4744C16.414 34.4744 16.7135 34.5561 16.9526 34.7195C17.1941 34.8804 17.3823 35.1065 17.5172 35.3977H17.574C17.7137 35.116 17.9232 34.8923 18.2026 34.7266C18.4819 34.5585 18.8169 34.4744 19.2076 34.4744C19.6953 34.4744 20.0942 34.6271 20.4043 34.9325C20.7144 35.2356 20.8695 35.7079 20.8695 36.3494V40H20.0314V36.3494C20.0314 35.947 19.9213 35.6593 19.7012 35.4865C19.481 35.3137 19.2218 35.2273 18.9235 35.2273C18.54 35.2273 18.2428 35.3433 18.0321 35.5753C17.8214 35.8049 17.7161 36.0961 17.7161 36.4489V40H16.8638V36.2642C16.8638 35.9541 16.7632 35.7043 16.562 35.5149C16.3607 35.3232 16.1015 35.2273 15.7843 35.2273C15.5665 35.2273 15.3629 35.2853 15.1735 35.4013C14.9864 35.5173 14.8349 35.6783 14.7189 35.8842C14.6053 36.0878 14.5485 36.3234 14.5485 36.5909V40H13.7104Z" fill="white"/>
</svg>
